<svg xmlns="http://www.w3.org/2000/svg" version="1.0" viewBox="0 0 1113 819"><path fill-opacity=".06" d="M838.1 270.6c0 1.1.3 1.4.6.6.3-.7.2-1.6-.1-1.9-.3-.4-.6.2-.5 1.3zm12 270c0 1.1.3 1.4.6.6.3-.7.2-1.6-.1-1.9-.3-.4-.6.2-.5 1.3zm.1 21.4c0 1.4.2 1.9.5 1.2.2-.6.2-1.8 0-2.5-.3-.6-.5-.1-.5 1.3zm-430.4 63.7c2.3.2 5.9.2 8 0 2-.2.1-.4-4.3-.4-4.4 0-6.1.2-3.7.4zm483 0c.6.2 1.8.2 2.5 0 .6-.3.1-.5-1.3-.5-1.4 0-1.9.2-1.2.5zM511.2 666c0 1.4.2 1.9.5 1.2.2-.6.2-1.8 0-2.5-.3-.6-.5-.1-.5 1.3zm106 10c0 1.4.2 1.9.5 1.2.2-.6.2-1.8 0-2.5-.3-.6-.5-.1-.5 1.3zm-.1 6.6c0 1.1.3 1.4.6.6.3-.7.2-1.6-.1-1.9-.3-.4-.6.2-.5 1.3zm.1 15.4c0 1.4.2 1.9.5 1.2.2-.6.2-1.8 0-2.5-.3-.6-.5-.1-.5 1.3zm61 9c0 1.9.2 2.7.5 1.7.2-.9.2-2.5 0-3.5-.3-.9-.5-.1-.5 1.8z"/><path fill-opacity=".14" d="M551.8 655.7c2.3.2 5.9.2 8 0 2-.2.1-.4-4.3-.4-4.4 0-6.1.2-3.7.4zm62 0c1.2.2 3 .2 4 0 .9-.3-.1-.5-2.3-.4-2.2 0-3 .2-1.7.4zM155 687c0 .5.5 1 1 1 .6 0 1-.5 1-1 0-.6-.4-1-1-1-.5 0-1 .4-1 1zm281.1 18.6c0 1.1.3 1.4.6.6.3-.7.2-1.6-.1-1.9-.3-.4-.6.2-.5 1.3zM383.3 716c0 2.5.2 3.5.4 2.2.2-1.2.2-3.2 0-4.5-.2-1.2-.4-.2-.4 2.3z"/><path fill-opacity=".18" d="M845.8 205.7c.7.3 1.6.2 1.9-.1.4-.3-.2-.6-1.3-.5-1.1 0-1.4.3-.6.6zm-11.6 199.8c0 1.6.2 2.2.5 1.2.2-.9.2-2.3 0-3-.3-.6-.5.1-.5 1.8z"/><path fill-opacity=".24" d="M396.8 423.7c.7.3 1.6.2 1.9-.1.4-.3-.2-.6-1.3-.5-1.1 0-1.4.3-.6.6zM155 691c0 .5.5 1 1 1 .6 0 1-.5 1-1 0-.6-.4-1-1-1-.5 0-1 .4-1 1zm616.1 14.6c0 1.1.3 1.4.6.6.3-.7.2-1.6-.1-1.9-.3-.4-.6.2-.5 1.3zM837.2 402c0 1.4.2 1.9.5 1.2.2-.6.2-1.8 0-2.5-.3-.6-.5-.1-.5 1.3zM708.1 667.6c0 1.1.3 1.4.6.6.3-.7.2-1.6-.1-1.9-.3-.4-.6.2-.5 1.3z"/><path fill-opacity=".22" d="M837.1 385.6c0 1.1.3 1.4.6.6.3-.7.2-1.6-.1-1.9-.3-.4-.6.2-.5 1.3zm-2 89c0 1.1.3 1.4.6.6.3-.7.2-1.6-.1-1.9-.3-.4-.6.2-.5 1.3zm16.1 34.4c0 1.9.2 2.7.5 1.7.2-.9.2-2.5 0-3.5-.3-.9-.5-.1-.5 1.8zM629.8 655.7c1.2.2 3 .2 4 0 .9-.3-.1-.5-2.3-.4-2.2 0-3 .2-1.7.4zm41 0c.7.3 1.6.2 1.9-.1.4-.3-.2-.6-1.3-.5-1.1 0-1.4.3-.6.6z"/><path fill-opacity=".16" d="M853.2 426c0 1.4.2 1.9.5 1.2.2-.6.2-1.8 0-2.5-.3-.6-.5-.1-.5 1.3zm-18 32c0 1.4.2 1.9.5 1.2.2-.6.2-1.8 0-2.5-.3-.6-.5-.1-.5 1.3zM621.8 655.7c1.2.2 3 .2 4 0 .9-.3-.1-.5-2.3-.4-2.2 0-3 .2-1.7.4z"/><path fill-opacity=".1" d="M833.2 314c0 1.4.2 1.9.5 1.2.2-.6.2-1.8 0-2.5-.3-.6-.5-.1-.5 1.3zm-318 51c0 1.9.2 2.7.5 1.7.2-.9.2-2.5 0-3.5-.3-.9-.5-.1-.5 1.8zm-137.4 33.7c1.2.2 3 .2 4 0 .9-.3-.1-.5-2.3-.4-2.2 0-3 .2-1.7.4zm-78 195c.7.3 1.6.2 1.9-.1.4-.3-.2-.6-1.3-.5-1.1 0-1.4.3-.6.6zM436.2 685c0 1.9.2 2.7.5 1.7.2-.9.2-2.5 0-3.5-.3-.9-.5-.1-.5 1.8z"/><path fill-opacity=".05" d="M861.5 377c-.3.6.1.7.9.4 1.8-.7 2.1-1.4.7-1.4-.6 0-1.3.4-1.6 1zm-25.4 105.6c0 1.1.3 1.4.6.6.3-.7.2-1.6-.1-1.9-.3-.4-.6.2-.5 1.3zm15 39c0 1.1.3 1.4.6.6.3-.7.2-1.6-.1-1.9-.3-.4-.6.2-.5 1.3zm-550.8 71.1c.9.2 2.3.2 3 0 .6-.3-.1-.5-1.8-.5-1.6 0-2.2.2-1.2.5zM511.4 692c0 11.3.2 15.9.3 10.2.2-5.6.2-14.8 0-20.5-.1-5.6-.3-1-.3 10.3zm166.9-16c0 2.5.2 3.5.4 2.2.2-1.2.2-3.2 0-4.5-.2-1.2-.4-.2-.4 2.3zm0 20c0 4.7.2 6.6.4 4.2.2-2.3.2-6.1 0-8.5-.2-2.3-.4-.4-.4 4.3z"/><path fill-opacity=".01" d="M675.8 210.7c.7.3 1.6.2 1.9-.1.4-.3-.2-.6-1.3-.5-1.1 0-1.4.3-.6.6zm39.8 16.6c.3 1 .9 1.5 1.2 1.2.3-.3 0-1.1-.7-1.8-1-.9-1.1-.8-.5.6zM686.5 245c-.3.5.1 1 1 1s1.3-.5 1-1c-.3-.6-.8-1-1-1-.2 0-.7.4-1 1zM354 258.4c0 .2.8 1 1.8 1.7 1.5 1.3 1.6 1.2.3-.4s-2.1-2.1-2.1-1.3zm-51.2 3.3c.7.3 1.6.2 1.9-.1.4-.3-.2-.6-1.3-.5-1.1 0-1.4.3-.6.6zm4.9 1.4c.7.7 1.5 1 1.8.7.3-.3-.2-.9-1.2-1.2-1.4-.6-1.5-.5-.6.5zm74.1 8.6c.7.3 1.6.2 1.9-.1.4-.3-.2-.6-1.3-.5-1.1 0-1.4.3-.6.6zm-47.3 1.3c2.7 1.2 4.3 1.2 2.5 0-.8-.5-2.2-.9-3-.9-1 0-.8.3.5.9zm52.3-.3c.7.3 1.6.2 1.9-.1.4-.3-.2-.6-1.3-.5-1.1 0-1.4.3-.6.6zm9 2c.7.3 1.6.2 1.9-.1.4-.3-.2-.6-1.3-.5-1.1 0-1.4.3-.6.6zm-78.5 35c.9.2 2.5.2 3.5 0 .9-.3.1-.5-1.8-.5-1.9 0-2.7.2-1.7.5zm188.8 83.9c0 1.1.3 1.4.6.6.3-.7.2-1.6-.1-1.9-.3-.4-.6.2-.5 1.3zm-3 17c0 1.1.3 1.4.6.6.3-.7.2-1.6-.1-1.9-.3-.4-.6.2-.5 1.3zm99.7 133.1c.7.3 1.6.2 1.9-.1.4-.3-.2-.6-1.3-.5-1.1 0-1.4.3-.6.6zm-305 47c.7.3 1.6.2 1.9-.1.4-.3-.2-.6-1.3-.5-1.1 0-1.4.3-.6.6zm13.7.3c-.3.5-.1 1 .4 1 .6 0 1.1-.5 1.1-1 0-.6-.2-1-.4-1-.3 0-.8.4-1.1 1zm8.5 2c.8.5 2 1 2.5 1 .6 0 .3-.5-.5-1s-1.9-1-2.5-1c-.5 0-.3.5.5 1zm222.2 77c0 1.4.2 1.9.5 1.2.2-.6.2-1.8 0-2.5-.3-.6-.5-.1-.5 1.3zm-45 5c0 1.4.2 1.9.5 1.2.2-.6.2-1.8 0-2.5-.3-.6-.5-.1-.5 1.3zm106 13c0 1.4.2 1.9.5 1.2.2-.6.2-1.8 0-2.5-.3-.6-.5-.1-.5 1.3zm104 10.5c0 1.6.2 2.2.5 1.2.2-.9.2-2.3 0-3-.3-.6-.5.1-.5 1.8zm-210 2.5c0 1.9.2 2.7.5 1.7.2-.9.2-2.5 0-3.5-.3-.9-.5-.1-.5 1.8z"/><path fill-opacity=".03" d="M703 219c0 .5.5 1 1 1 .6 0 1-.5 1-1 0-.6-.4-1-1-1-.5 0-1 .4-1 1zm-20.5 21.9c-.3.5-.2 1.2.3 1.5.5.3.9-.1.9-.9 0-1.7-.3-1.9-1.2-.6zm155.6 21.7c0 1.1.3 1.4.6.6.3-.7.2-1.6-.1-1.9-.3-.4-.6.2-.5 1.3zm-98 176c0 1.1.3 1.4.6.6.3-.7.2-1.6-.1-1.9-.3-.4-.6.2-.5 1.3zm96 38c0 1.1.3 1.4.6.6.3-.7.2-1.6-.1-1.9-.3-.4-.6.2-.5 1.3zM583.8 625.7c.7.3 1.6.2 1.9-.1.4-.3-.2-.6-1.3-.5-1.1 0-1.4.3-.6.6zm19.3 49.9c0 1.1.3 1.4.6.6.3-.7.2-1.6-.1-1.9-.3-.4-.6.2-.5 1.3zm.1 4.4c0 1.4.2 1.9.5 1.2.2-.6.2-1.8 0-2.5-.3-.6-.5-.1-.5 1.3zm0 16c0 1.4.2 1.9.5 1.2.2-.6.2-1.8 0-2.5-.3-.6-.5-.1-.5 1.3zm-105.9 12c0 2.5.2 3.5.4 2.2.2-1.2.2-3.2 0-4.5-.2-1.2-.4-.2-.4 2.3zm105.9-2c0 1.4.2 1.9.5 1.2.2-.6.2-1.8 0-2.5-.3-.6-.5-.1-.5 1.3z"/><path fill-opacity=".48" d="M900.2 191c0 1.4.2 1.9.5 1.2.2-.6.2-1.8 0-2.5-.3-.6-.5-.1-.5 1.3zm-61 54.5c0 1.6.2 2.2.5 1.2.2-.9.2-2.3 0-3-.3-.6-.5.1-.5 1.8zm13.9 153.1c0 1.1.3 1.4.6.6.3-.7.2-1.6-.1-1.9-.3-.4-.6.2-.5 1.3zM837.2 458c0 1.4.2 1.9.5 1.2.2-.6.2-1.8 0-2.5-.3-.6-.5-.1-.5 1.3zm-129 235c0 1.9.2 2.7.5 1.7.2-.9.2-2.5 0-3.5-.3-.9-.5-.1-.5 1.8zm-43 13c0 1.4.2 1.9.5 1.2.2-.6.2-1.8 0-2.5-.3-.6-.5-.1-.5 1.3z"/><g stroke-width="0"><path d="M827 93.2c-7.7 4-11.1 11.6-8.9 20.3 1.4 5.6 8.1 11.9 13.5 13 7.9 1.4 16.3-2.6 20-9.7 1.7-3.4 2-11.1.6-14.8-3.9-9.6-15.6-13.7-25.2-8.8zm13.2 10.5c4.1 3.7.9 12.3-4.6 12.3-3.9 0-8.2-5.3-6.9-8.7 1.8-5.2 7.7-7.1 11.5-3.6zm-15.6 30.4c-.3 1.7-.6 4.4-.6 6v2.9h23.1l-.7-5.8c-.3-3.1-.8-5.8-.9-6-.1-.1-2.4.2-5 .8-4.2.9-8.6.7-13.6-.6-1.2-.3-1.8.4-2.3 2.7zM207 137c0 9.3 6.2 24.8 14.5 36.5 4.3 6.1 16.3 18.1 24.5 24.7 14.8 11.8 41.3 27 70.5 40.5 9.9 4.5 11 5 33.5 14.8 8.5 3.7 16.9 7.3 18.5 8 1.7.7 7.7 3.2 13.5 5.5s12.3 5 14.5 6c2.2 1 7.4 3.2 11.5 5 17.5 7.5 46.3 22.3 56.5 29 21.9 14.4 41.2 31.2 47.8 41.4 3.2 5.1 3.2 5.1 3.1 18.1 0 10.9-.5 15.2-3.2 26.5-7.2 31.2-6.5 49.1 2.4 64.2 3.3 5.8 3.1 8.3-.3 3-1-1.5-3.3-4.7-5.2-7.2-1.8-2.5-4.3-6.4-5.4-8.8-1.2-2.3-2.6-4.1-3.2-3.9-1 .5-40.9 27.9-50 34.6-7.3 5.3-7.9 5.8-18.8 15.6-13.4 11.9-15.9 15.4-33.2 46-19.1 33.9-37.3 48.7-69.9 56.7-10.8 2.7-13.3 3-23.6 2.6-12.6-.5-18.7-2.1-25.5-6.8-21.6-14.9-24.3-41.8-6.2-61.6 9.9-10.8 25-19.2 53.2-29.4 14.4-5.2 32.7-12.6 38-15.3 25.3-13 27.7-23.1 7-30.1-6.2-2.1-7-2.7-7.6-5.3-1.8-8.9-13.2-14.5-26.3-12.9-6.3.8-7.2 2-2.3 3.1 2.6.7 1.4 1-6.3 1.6-5.2.5-11.7 1.4-14.4 2l-4.9 1.2 2.4 1.8c3.7 2.9 20 10.8 23.6 11.5 3.8.7 3.4 2.4-.5 2.5-2.5.1-2.4.2 1.3 1.9 6.3 3 13.8 3.6 19.1 1.5 2.5-.9 5-2.6 5.7-3.6 1.5-2.4 3.7-2.4 9.2.2 5 2.4 6.9 4.9 6 7.9-2.1 6.6-21.3 15.2-51 23-20.4 5.3-21.8 5.7-28.5 8-17.4 6-29.3 13.2-39.2 23.9-26.7 28.8-20.2 68.1 14.3 87.1l5.4 3h-72.3l-2-3.5c-3.6-6-10.8-6-14.4 0l-2 3.5h-12.9c-12.3 0-12.9-.1-14-2.3-.6-1.2-2.7-4.1-4.6-6.4-4.8-5.9-8.5-5.9-15.7-.1-2.8 2.4-5.3 4.5-5.6 4.8-.3.3-3.2 2.8-6.5 5.4-3.3 2.7-6 5.2-6 5.6 0 .7 12.9 11.6 20.4 17.2 6.3 4.7 10.5 3.3 16-5.2l3.2-5h25.7l2 3.5c3.6 6 10.8 6 14.3 0l2.1-3.5h709.3l1.5 3.3c2.9 6.1 10.6 6.2 14.2.2l2-3.5h25.6l3.1 4.9c1.8 2.7 4.3 5.7 5.6 6.5 4.7 3.1 7.3 2.1 18.5-7.5 5.9-5 8.4-7 11.5-9.4 2-1.5 1.9-1.6-1.5-4.3-1.9-1.5-7.3-6-12.1-9.9-12.3-10.3-14.9-10.1-22.4 1.5l-2.8 4.2h-25.6l-1.6-3c-1.8-3.4-4.3-5-8-5-2.3 0-4.4 1.6-8.3 6.4-1.1 1.4-5.6 1.6-38.6 1.6-20.5 0-37.5-.3-37.8-.6-.4-.3 2.1-8.5 5.5-18.2l6-17.7.8-35c.3-19.3 1.2-53 1.7-75 .6-22 1.4-51.4 1.7-65.3l.7-25.2h-3.4c-1.8.1-5.3 1.1-7.8 2.3l-4.5 2.2-1 85.5-1 85.5-.7-39.5c-.5-21.7-1.1-59.4-1.5-83.8-.3-24.3-1-44.2-1.4-44.2-.4 0-3.3 2.3-6.3 5.1l-5.6 5.1v-3c0-5.8 6.1-11.9 17.6-17.7 9.3-4.6 17.4-2.7 17.4 4.1 0 1.9.5 3.4 1.1 3.4 1.1 0 3.9-2.4 3.9-3.4 0-.3 1.1-2.2 2.5-4.2 3.2-4.7 3.4-11.1.5-14.2-2.5-2.6-2.5-2.9 0-7.7 2.7-5.4 2.6-10.6-.3-13.3-1.3-1.2-3.2-2.2-4.3-2.2-4.5-.1-4.5-.3-3.5-25.1.6-12.9 1.3-31.3 1.6-41l.7-17.5 8.9-5.3c4.9-2.9 8.9-5.6 8.9-6 0-.3-2.4-2.1-5.4-3.9-6.3-3.7-10.9-8.2-11.7-11.4-.5-2-1.1-2.3-4.5-2-2.1.1-6.2.7-9 1.3l-5.1 1-.7 20.2c-.3 11.1-.7 34.7-.7 52.4-.1 17.7-.4 33.3-.6 34.7-.4 1.9-1.2 2.6-2.8 2.6-2.2 0-2.2 0-2.8-24.8-.4-13.6-.7-32.8-.7-42.8 0-9.9-.3-23.5-.7-30.2l-.6-12.1-5.1-1c-13-2.5-12.4-2.5-13.9 1.2-1.6 3.6-4.9 6.8-12.1 11.3-2.5 1.6-4.5 3.3-4.3 3.8.3 1 4.4 3.6 11.8 7.5 1.9 1.1 4 2.5 4.6 3.3 1 1.2 2.2 23.7 3.9 72.8l.6 17.5-5.5 2.8c-10.1 5.2-17.5 14.8-16.2 21 .4 1.8 1.5 4 2.3 5 2.2 2.5 2.9 2-23.1 14.7-15.8 7.7-21.8 11-22.1 12.5-3.9 16.7-3.9 16.2-2.1 21 1.5 3.7 1.7 6.4 1.1 15.8-.3 6.1-.9 13.7-1.2 16.7l-.7 5.4 5.9-4.9c3.2-2.8 7-6 8.4-7.2 3.6-3.1 5-4.3 21.5-18.3 8.1-6.9 16.6-14.2 18.9-16.3l4.1-3.7-3-2.5c-1.6-1.3-2.7-2.6-2.5-2.7.3-.2 4.1-.1 8.5.2l8 .5 1.7 57c1 31.3 2.1 70.3 2.4 86.5l.7 29.5 5.8 17.2c3.3 9.5 5.9 17.9 5.9 18.8 0 1.3-3.6 1.5-27.5 1.5H780v-3.9c0-4.8-.7-5.1-11.7-5.1-4.8 0-8.4-.3-8-.6.3-.4 4.5-1.4 9.4-2.3 6.9-1.3 8.9-2 9.1-3.4.5-2.7-7-9.5-11.4-10.3-4.2-.8-17.4.2-22.4 1.6-1.9.5-6.8 1.2-11 1.5-8.6.7-10.8-.1-15.3-5.7-2.9-3.6-3.1-4.3-4.8-23-2-20.8-2.3-29.8-1.1-29.8.4 0 1.6.7 2.6 1.5 1.1.8 2.3 1.5 2.8 1.5 1.2 0 .9-8.6-.6-16.5-1.3-6.4-1.2-7.3.4-10.6 2.8-5.3 5.7-15.3 7.6-25.4 1.2-6.8 1.5-12.7 1.1-25-.2-8.8-.8-17.1-1.2-18.5-.8-2.3-.7-2.4.8-1.1 1.9 1.5 9.7 16.6 9.7 18.7 0 .8.4 1.4 1 1.4 1.5 0 2.4-6.9 2.4-18.5-.1-13.6-2.5-23.4-9.5-39-2.8-6-5.3-11.7-5.6-12.5-.4-.8 2.3 1.1 5.9 4.2 3.6 3.2 7 5.8 7.6 5.8 2.8 0 3-17.8.2-26.1-4-11.8-11.4-20.5-30.1-35.4-17.7-14.2-23.1-22.7-18.5-29.1 1.3-1.7 3.1-2 18.3-2.5 14-.4 17.4-.8 20.3-2.5l3.5-1.9-6.5-.5c-3.6-.3-8.3-1.4-10.5-2.3-2.2-1-5.2-2.3-6.7-3-1.6-.6-2.8-1.5-2.8-1.8 0-.3 3.6-.9 8.1-1.3 17.1-1.4 27.9 2.5 27.9 10.1 0 6.9 7.7-3.5 8.7-11.6.8-7.3-1.6-12.9-8.3-19-4.7-4.3-13-9.1-19.8-11.5-1.3-.5-1.7-1.2-1.2-2.9 2.9-9.7.8-17.7-6.7-25-7.5-7.3-19.7-13-40.2-18.6-21.5-6-27.9-8.1-33-11-6.9-4-12.1-9.5-14.1-15-3.3-9.3-3-9-4.8-4.6-5 11.7-5.9 23.7-2.5 33.7 2 6.2 1.7 7.7-1.7 7.8-2 0-11.7 4.3-16.9 7.4-6.9 4.1-17.5 12.7-17.5 14.2 0 .7 5.5.2 17.4-1.6 3.8-.6 7.1-.9 7.2-.7.2.2-1.7 1.8-4.4 3.5-6 3.9-17.7 15.4-23.6 23.2-4.8 6.4-10.1 16.5-11.2 21.5-.7 2.8-.3 2.6 6.1-3.4 3.8-3.5 8.8-7.6 11.2-9.2 5.1-3.1 17.1-8.4 17.8-7.8.2.3-2.2 3.3-5.5 6.7-14.1 14.8-21.1 32.5-20.9 52.7.1 11.4.7 11.8 6.3 3.3 7.2-10.8 22.9-28.8 24.1-27.6.3.3-.8 3.1-2.4 6.4-3.6 7.4-8.6 22.8-10.2 31.1-.6 3.4-.9 10.4-.7 15.5.4 7.9.9 10.2 3.5 15.3 5.8 11.3 12.5 16.1 45.3 32.3 12.4 6.1 25.2 13.2 28.5 15.7 12.7 9.6 22.7 21 28.5 32.5 5.7 11.3 11 30.6 10.9 40 0 1.4-1.4-1.8-3.3-7-7.5-21.7-18.2-37-34.7-49.7-8.2-6.2-17.8-11.3-35.4-18.8-14.3-6.1-27.3-12.6-33.1-16.5-6.9-4.8-15-13.4-18.5-19.5-1.7-3-3.3-5.5-3.5-5.5-.1 0-2.1 3-4.3 6.8-5.7 9.6-29.1 41.6-29.9 40.8-.1-.2 4-8.9 9.1-19.3 13.5-27.3 17.4-41 16.5-57.6-1.2-20.7-11.8-37.8-34.3-55.3-6.4-5-23.1-14.7-35.6-20.7-20.1-9.7-29.1-13-97.3-35.8-51.6-17.2-59.7-20.1-81.1-28.6-26.2-10.4-51.6-22.2-65-30.3-2.7-1.7-5.7-3.3-6.5-3.7-6.9-3-25.9-17.8-37.2-29l-9.8-9.6v3.3zm463.4 92.2c17.1 10 20.6 12.6 20.6 14.8 0 3.1 3.6 6 7.3 6 2.1 0 4.1.8 5.2 2 2.3 2.5 1.9 2.9-4.1 3.6-8.8 1.1-14.7-3.2-20.6-15.1-1.9-3.7-4.9-6.3-18.9-16.3-6.1-4.3-1.6-2.1 10.5 5zm186.7 119.9c1.8 2.7.5 4.4-3 4.1-5.6-.6-17.2 2.5-27.9 7.4-2.9 1.3-5.5 2.4-5.7 2.4-2.6 0 4.5-8 9.5-10.7 3.2-1.7 8.3-3.5 13.5-4.7 3.9-.9 12.7.1 13.6 1.5zm-198.4 163c.4 9 .2 12.2-1 15.1-1.6 3.7-1.5 3.7 2.4 9.8 5 7.7 8.4 11.4 9.7 10.6.6-.3 1.6-3.1 2.2-6.1.6-3 1.5-5.7 1.9-5.9 1.3-.8 14.1 44 14.1 49.1 0 3-.4 3.3-4.8 4.7-2.7.7-7.5 1.9-10.8 2.6-7.5 1.5-11.7 5.3-14.6 13.2l-2.1 5.8H592v-2.3c0-5-1.5-5.6-16-6.1-7.4-.3-13.7-.6-14-.7-.3-.1 1.1-.5 3-.9 15.4-3.2 19.4-4.2 20.2-4.6 1.4-.9-6-6.2-11.5-8.2-9.6-3.6-18.1-4.4-40.9-4.1-11.9.2-21.6.3-21.5.2.1-.1 5.6-1.3 12.2-2.8 21.7-4.9 32.6-9.4 42.7-17.7 11.6-9.6 16.2-24.6 10.9-36-4.1-9.1-18.6-19.7-27-19.9-3.3 0-3.4-.1-1.3-1 2.6-1 9.9-.2 10.8 1.2.3.5 1.5.9 2.7.9 2.3 0 10.6 4.5 14.3 7.8 4.2 3.6 9.2 11.2 11.9 18l2.8 7 8.4.7c30.6 2.6 48.7-7.7 54.8-31.2.8-3.1 1.5-7.3 1.5-9.2 0-2.5.3-3.2 1.1-2.4.6.6 1.3 6.2 1.6 12.4zm-250.2 63.3c1.3 5.4 4.5 14.8 7 20.9 2.6 6.2 4.7 11.9 4.8 12.7.2 1.3-4.8 1.5-38.8 1.7l-39 .2 8-3.3c10.9-4.5 15.6-7 25.1-13.3 8.8-5.8 21.3-17.5 26.5-24.8 1.8-2.5 3.4-4.4 3.6-4.2.1.2 1.4 4.7 2.8 10.1zm414.2-423.7c-.2 2.1-.2 4.1 0 4.5.2.5 6 .8 12.9.8H848v-9h-24.8l-.5 3.7z"/><path d="M821.5 165.2c-.3 1.8-1.2 9.3-2 16.6-.8 7.3-1.7 13.7-2 14.2-.4.6-7.9 1-18.3 1-19.7 0-20.7-.3-23.6-6.4-.9-1.9-1.6-5.1-1.7-7.3l-.1-3.8-1.9 4c-1.5 3-1.8 5.2-1.4 8.8.5 4.5.4 4.8-2.2 5.8-1.5.6-4.3 1.7-6.1 2.6l-3.4 1.6 2.3 1.8c1.3.9 3.9 2.3 5.9 2.9l3.6 1.2v6.2c0 3.5.6 7.1 1.4 8.6 1.4 2.5 1.4 2.4 2.1-2.6.8-6 3.3-10.4 6.1-10.4 2 0 35.1 5.2 44.7 7 3 .5 7.5 1 10.1 1 4.1 0 30.6-4 46.9-7 8.8-1.6 10.5-1.4 12.5 2.1 1 1.6 2.1 5.1 2.5 7.7.7 4.6.7 4.7 2.1 2.2.8-1.4 1.3-5.1 1.2-8.8 0-3.4.4-6.2.9-6.2 1.8 0 9.9-4.2 9.9-5.2 0-.5-2.5-2-5.5-3.4l-5.5-2.5v-6.2c-.1-3.5-.7-7.3-1.5-8.7-1.4-2.5-1.4-2.5-1.5 1.3 0 2.2-.7 5.5-1.6 7.4-3 6.1-4.1 6.4-23.9 6.1l-17.8-.3-.8-2.5c-.4-1.4-1.2-7.7-1.8-14-.7-6.3-1.4-13-1.7-14.8l-.5-3.2h-26.8l-.6 3.2zm37.5 40.7c-1.8 1-19.2 3.5-24 3.4-4.3 0-24.1-3.1-24.8-3.8-.3-.3 10.9-.5 24.9-.5 14.2 0 24.7.4 23.9.9zm-650.5-.7c.3 1.3.9 4.4 1.5 7.1 9.1 42.6 45.4 74 111 95.7 18.7 6.3 40.9 12.6 78.5 22.5 7.7 2 15.4 4.1 17 4.6 1.7.5 7.7 2.3 13.5 4 21.9 6.4 37.8 12.3 53.9 20 6.8 3.3 12.6 5.8 12.8 5.5.2-.2-1.7-3-4.2-6.4-15.4-20.5-47.4-38.9-109.5-63.1-7.4-2.9-14.6-5.8-16-6.3-1.4-.6-3.4-1.4-4.5-1.8-1.1-.5-7.8-3.1-15-6-7.1-2.9-16.1-6.5-20-8-19.3-7.7-26.6-10.9-45-20.1-11-5.4-21.3-10.7-23-11.6-18.5-10.9-31.3-20.3-42.4-30.8-4.3-4.1-8.1-7.5-8.5-7.5-.3 0-.4 1-.1 2.2zm34.5 93.6c0 .5.8 3.3 1.9 6.3 10.2 29.6 35 50.7 73.7 62.4 13.4 4.1 15.4 4.6 34.4 7.9 18.8 3.3 35.6 5.3 65 7.6 34.1 2.7 51.6 4.8 64.3 7.6 3.8.9 7.1 1.3 7.4 1 2-1.9-11.7-11.8-24.5-17.8-11.7-5.4-37.4-14-59.7-19.8-6-1.6-14.6-3.8-19-5-4.4-1.2-12.3-3.2-17.5-4.6-68.3-18-100.1-29.6-120.4-43.7-4-2.8-5.6-3.3-5.6-1.9zm82.5 95.9c1.5 2.7 5.5 7.6 9 10.9 15.4 15.2 38 19.5 85 16.3 11-.8 29.5-1.4 41.2-1.4 23.8.1 23.3.3 13-6.7-6-4.1-15.3-8.4-21.7-9.9-13.3-3.4-22.1-4.1-60.5-4.9-42.6-1-48.8-1.7-60.7-6.4-3.6-1.4-6.8-2.6-7.2-2.6-.4 0 .4 2.1 1.9 4.7zm30.9 260.8c-11.6 2.8-20.4 9.9-25.3 20.4-2.3 5-2.6 6.8-2.6 16.1.1 8.9.4 11.2 2.3 15.1 6 12.1 16.8 19.1 32.9 21.1 10.2 1.3 22 .3 28.6-2.5l3.7-1.6v-12.5c0-13.8 1-17.6 4.6-17.6 1.3 0 2.6-.5 2.9-1 .4-.6-4.6-1-14.2-1-9.9 0-14.3.3-13.3 1 .8.5 2.3 1 3.2 1 4 0 4.8 2.6 4.8 15.6V722l-2.7 1.1c-7.5 3-23.5-1.5-30.1-8.4-13-13.6-13.2-41.2-.2-50.6 12.7-9.2 37.5-5.1 41.5 6.9.7 1.9 1.6 3.4 2.1 3.3.8-.3 2-17.2 1.2-17.3-18.7-3.2-30.7-3.7-39.4-1.5zm353.1-.3c-.2.7-.6 16.1-.9 34.3-.6 31.8-.7 33.1-2.7 34.7-1.2 1-3 1.8-4.1 1.8-1 0-1.7.4-1.4.9.6 1 24.1 1 25.1 0 .3-.4-1-1-2.9-1.3-5.9-1.1-6-1.7-6.7-26.5-.4-12.4-.5-22.8-.4-22.9.2-.2 12 11.4 26.2 25.9 17.9 18.1 26.4 26.1 27.5 25.7 1.3-.5 1.6-5.4 2.1-33.5.3-18.1.9-33.6 1.2-34.5.4-.9 2-2 3.7-2.3 6.1-1.4 1-2.1-10.7-1.6-9.7.5-11.2.7-7.7 1.4 3.1.5 4.5 1.3 5.1 3 .4 1.2 1.1 12.2 1.5 24.4.5 18.7.4 22.3-.7 22.3-.8 0-4.7-3.5-8.7-7.8-14.2-15-43.8-45.2-44.4-45.2-.4 0-.8.6-1.1 1.2zM416 656c-.7.4.6 1 2.9 1.4 3.3.5 4.2 1.1 4.8 3.4 1 3.4 1 57.8 0 61.4-.5 1.9-1.6 2.8-3.7 3.3-6.4 1.4-1.5 2.3 11.5 2.1 13.9-.2 17.5-.9 10.6-2-3.6-.5-4.1-1-5-4.4-.7-2.1-1.1-15.4-1.1-31.8 0-31-.4-29.4 6.3-29.4 4.1 0 9.2 3.1 11.8 7.2 1.7 2.8 2 4.5 1.6 11.7-.3 8-.5 8.6-3.5 11.3-2.3 1.9-4.3 2.8-6.7 2.8-1.9 0-3.5.4-3.5.8 0 2.5 22.9 28.9 27.5 31.8 2.7 1.7 5.3 1.9 26.2 2 22.1.1 29.8-.6 21.8-1.9-6.8-1.1-6.5.3-6.5-34.1 0-17.1.4-31.6.8-32.2.4-.6 2.1-1.6 3.7-2.1 2.4-.9.5-1.1-10.3-1.4-13-.4-17 .2-11.5 1.6 1.6.3 3.1 1.2 3.5 1.8 1 1.5 1 62.8 0 64.3-1.2 2-7.2 2.7-11.7 1.4-2.7-.7-6.1-2.9-8.7-5.4-4.9-4.7-20.8-24.2-20.8-25.4 0-.5 1.4-2.1 3.1-3.8 11.7-11.1 11.2-26.7-1.1-32.5-4-1.9-6.5-2.2-22.6-2.4-10-.1-18.7.1-19.4.5zm118.7.2c-.7.5-.1.8 1.3.8 1.4 0 3.6.7 4.8 1.6 2.2 1.5 2.2 1.6 2.2 32.5 0 29.6-.1 31-2 32.9-1.1 1.1-2.8 2-3.7 2-.9 0-1.4.3-1 .6 1 1 27.2 1.4 28.7.4 1.1-.7.7-1-1.7-1-2 0-4.1-.8-5.3-2-1.8-1.8-2-3.3-2-17.5V691h4.8c9.6 0 12.3 1 13.9 4.9 1.9 4.5 3.1 2.8 3.3-4.9.2-7.4.2-7.6-1.2-6.2-.8.8-4.7 1.2-11 1.2H556v-25h9c7.7 0 9.3.3 11 2 1.1 1.1 2 2.7 2 3.5 0 .8.5 1.5 1 1.5.6 0 1-1.5 1-3.4 0-1.8.3-4.6.6-6.2l.6-2.9h-22.7c-12.5 0-23.2.3-23.8.7zm61.5-.1c-1 .4-.1.8 2.5 1.2 2.3.4 4.3 1.4 4.7 2.3.3.8.6 15.3.6 32 0 29.1-.1 30.5-2 32.4-1.1 1.1-2.8 2-3.7 2-.9 0-1.4.3-1 .6 1 1 28.6 1.3 29.3.3.3-.5-.9-.9-2.5-.9-1.8 0-4-.9-5.1-2-1.8-1.8-2-3.3-2-17 0-12.4.3-15.2 1.5-15.6.8-.3 4.7-.2 8.7.3 7 .8 7.4.9 8.9 4.2 2 4.3 2.6 3.3 3-4.9.3-5.4.1-6.4-1.1-6-.8.2-5.9.6-11.2.8l-9.8.3V661h9.3c7.8 0 9.7.3 11 1.8 1 1 1.7 2.6 1.7 3.5 0 .9.5 1.7 1 1.7.6 0 1-1.5 1-3.4 0-1.8.3-4.6.6-6.2l.5-2.9H620c-12.1 0-22.8.3-23.8.6zm62.6-.2c-.7.2.3 1 2.2 1.6 3.2 1.1 3.6 1.6 4.3 6.6 1 6.1.3 56.5-.8 59.1-.4.9-2 2-3.7 2.3-5.5 1.3-1.8 1.9 12.2 2.1 13.8.1 18.8-.7 11-2-2.4-.4-4.3-1.4-5-2.5-1.2-2.3-1.4-61.9-.2-63.7.4-.6 2.1-1.6 3.7-2.2 1.7-.6 2.6-1.1 2-1.1-3.6-.4-24.7-.5-25.7-.2z"/></g><path fill-opacity=".47" d="M831.1 238.6c0 1.1.3 1.4.6.6.3-.7.2-1.6-.1-1.9-.3-.4-.6.2-.5 1.3zm8 3c0 1.1.3 1.4.6.6.3-.7.2-1.6-.1-1.9-.3-.4-.6.2-.5 1.3zm-1 81c0 1.1.3 1.4.6.6.3-.7.2-1.6-.1-1.9-.3-.4-.6.2-.5 1.3zM771.2 682c0 1.4.2 1.9.5 1.2.2-.6.2-1.8 0-2.5-.3-.6-.5-.1-.5 1.3z"/><path fill-opacity=".2" d="M837.3 396.5c0 2.2.2 3 .4 1.7.2-1.2.2-3 0-4-.3-.9-.5.1-.4 2.3zM565.8 655.7c1.2.2 3.2.2 4.5 0 1.2-.2.2-.4-2.3-.4s-3.5.2-2.2.4zM155 695c0 .5.5 1 1 1 .6 0 1-.5 1-1 0-.6-.4-1-1-1-.5 0-1 .4-1 1zm616.2 16.5c0 1.6.2 2.2.5 1.2.2-.9.2-2.3 0-3-.3-.6-.5.1-.5 1.8z"/><path fill-opacity=".04" d="M838.1 265.6c0 1.1.3 1.4.6.6.3-.7.2-1.6-.1-1.9-.3-.4-.6.2-.5 1.3zM385.8 398.7c1.2.2 3 .2 4 0 .9-.3-.1-.5-2.3-.4-2.2 0-3 .2-1.7.4zm19 0c.6.2 1.8.2 2.5 0 .6-.3.1-.5-1.3-.5-1.4 0-1.9.2-1.2.5zm431.3 80.9c0 1.1.3 1.4.6.6.3-.7.2-1.6-.1-1.9-.3-.4-.6.2-.5 1.3zm14.1 86.4c0 1.4.2 1.9.5 1.2.2-.6.2-1.8 0-2.5-.3-.6-.5-.1-.5 1.3zm-541.4 26.7c.7.3 1.6.2 1.9-.1.4-.3-.2-.6-1.3-.5-1.1 0-1.4.3-.6.6zm-142 33c.7.3 1.6.2 1.9-.1.4-.3-.2-.6-1.3-.5-1.1 0-1.4.3-.6.6zm8 0c.7.3 1.6.2 1.9-.1.4-.3-.2-.6-1.3-.5-1.1 0-1.4.3-.6.6zm176.5 0c12 .2 31.4.2 43 0 11.7-.1 1.9-.2-21.8-.2-23.6 0-33.2.1-21.2.2zm100.5 0c2.3.2 5.9.2 8 0 2-.2.1-.4-4.3-.4-4.4 0-6.1.2-3.7.4zm47.5 0c14.2.2 37.2.2 51 0 13.9-.1 2.3-.2-25.8-.2-28 0-39.4.1-25.2.2zm88 0c.9.2 2.3.2 3 0 .6-.3-.1-.5-1.8-.5-1.6 0-2.2.2-1.2.5zm100.5 0c9 .2 23.4.2 32 0 8.6-.1 1.3-.3-16.3-.3s-24.7.2-15.7.3zm96 0c17.8.2 46.6.2 64 0 17.4-.1 2.9-.2-32.3-.2-35.2 0-49.5.1-31.7.2zm109 0c1.8.2 4.5.2 6 0s0-.4-3.3-.4-4.5.2-2.7.4zm15 0c.6.2 1.8.2 2.5 0 .6-.3.1-.5-1.3-.5-1.4 0-1.9.2-1.2.5zm37.5 0c.9.2 2.3.2 3 0 .6-.3-.1-.5-1.8-.5-1.6 0-2.2.2-1.2.5zm-384 36c.9.2 2.3.2 3 0 .6-.3-.1-.5-1.8-.5-1.6 0-2.2.2-1.2.5zm63.5 0c.7.3 1.6.2 1.9-.1.4-.3-.2-.6-1.3-.5-1.1 0-1.4.3-.6.6zm53.5 22.3c0 2.5.2 3.5.4 2.2.2-1.2.2-3.2 0-4.5-.2-1.2-.4-.2-.4 2.3z"/><path fill-opacity=".02" d="M712 224.5c1.3 1.4 2.6 2.5 2.8 2.5.3 0-.5-1.1-1.8-2.5s-2.6-2.5-2.8-2.5c-.3 0 .5 1.1 1.8 2.5zm-359 31.9c0 .2.8 1 1.8 1.7 1.5 1.3 1.6 1.2.3-.4s-2.1-2.1-2.1-1.3zm479.2 1.6c0 1.4.2 1.9.5 1.2.2-.6.2-1.8 0-2.5-.3-.6-.5-.1-.5 1.3zm5.9 1.6c0 1.1.3 1.4.6.6.3-.7.2-1.6-.1-1.9-.3-.4-.6.2-.5 1.3zm-335 161c0 1.1.3 1.4.6.6.3-.7.2-1.6-.1-1.9-.3-.4-.6.2-.5 1.3zm332 18c0 1.1.3 1.4.6.6.3-.7.2-1.6-.1-1.9-.3-.4-.6.2-.5 1.3zm1.2 30.9c0 3.3.2 4.5.4 2.7.2-1.8.2-4.5 0-6s-.4 0-.4 3.3zm-127.7 16.8c.3 1 .9 1.5 1.2 1.2.3-.3 0-1.1-.7-1.8-1-.9-1.1-.8-.5.6zM300.3 591.7c.9.2 2.3.2 3 0 .6-.3-.1-.5-1.8-.5-1.6 0-2.2.2-1.2.5zm-129.5 34c.7.3 1.6.2 1.9-.1.4-.3-.2-.6-1.3-.5-1.1 0-1.4.3-.6.6zm53.9 0c9.4.2 25.2.2 35 0 9.8-.1 2.1-.2-17.2-.2-19.2-.1-27.3.1-17.8.2zm56.1 0c.7.3 1.6.2 1.9-.1.4-.3-.2-.6-1.3-.5-1.1 0-1.4.3-.6.6zm155 0c2.3.2 5.9.2 8 0 2-.2.1-.4-4.3-.4-4.4 0-6.1.2-3.7.4zm30.5 0c1.5.2 3.7.2 5 0 1.2-.2 0-.4-2.8-.4-2.7 0-3.8.2-2.2.4zm111.5 0c1.2.2 3 .2 4 0 .9-.3-.1-.5-2.3-.4-2.2 0-3 .2-1.7.4zm54 0c7.2.2 19.2.2 26.5 0 7.2-.1 1.3-.3-13.3-.3-14.6 0-20.5.2-13.2.3zm108 0c2.3.2 5.9.2 8 0 2-.2.1-.4-4.3-.4-4.4 0-6.1.2-3.7.4zm142.5 0c1.5.2 3.7.2 5 0 1.2-.2 0-.4-2.8-.4-2.7 0-3.8.2-2.2.4zm55.5 0c1.2.2 3 .2 4 0 .9-.3-.1-.5-2.3-.4-2.2 0-3 .2-1.7.4zm-317 36c.7.3 1.6.2 1.9-.1.4-.3-.2-.6-1.3-.5-1.1 0-1.4.3-.6.6zm-123.7 9.9c0 1.1.3 1.4.6.6.3-.7.2-1.6-.1-1.9-.3-.4-.6.2-.5 1.3zM603.2 684c0 1.4.2 1.9.5 1.2.2-.6.2-1.8 0-2.5-.3-.6-.5-.1-.5 1.3zm0 8c0 1.4.2 1.9.5 1.2.2-.6.2-1.8 0-2.5-.3-.6-.5-.1-.5 1.3zm0 9c0 1.9.2 2.7.5 1.7.2-.9.2-2.5 0-3.5-.3-.9-.5-.1-.5 1.8zm103.9 1.6c0 1.1.3 1.4.6.6.3-.7.2-1.6-.1-1.9-.3-.4-.6.2-.5 1.3z"/><path fill-opacity=".43" d="M839.1 235.6c0 1.1.3 1.4.6.6.3-.7.2-1.6-.1-1.9-.3-.4-.6.2-.5 1.3zm-1 83c0 1.1.3 1.4.6.6.3-.7.2-1.6-.1-1.9-.3-.4-.6.2-.5 1.3zm-1 123c0 1.1.3 1.4.6.6.3-.7.2-1.6-.1-1.9-.3-.4-.6.2-.5 1.3z"/><path fill-opacity=".15" d="M857.1 285.6c0 1.1.3 1.4.6.6.3-.7.2-1.6-.1-1.9-.3-.4-.6.2-.5 1.3zM833.2 322c0 1.4.2 1.9.5 1.2.2-.6.2-1.8 0-2.5-.3-.6-.5-.1-.5 1.3zm20 108c0 1.4.2 1.9.5 1.2.2-.6.2-1.8 0-2.5-.3-.6-.5-.1-.5 1.3zm-34 30c0 1.4.2 1.9.5 1.2.2-.6.2-1.8 0-2.5-.3-.6-.5-.1-.5 1.3zM383.3 708c0 2.5.2 3.5.4 2.2.2-1.2.2-3.2 0-4.5-.2-1.2-.4-.2-.4 2.3zm387.8 11.6c0 1.1.3 1.4.6.6.3-.7.2-1.6-.1-1.9-.3-.4-.6.2-.5 1.3z"/><path fill-opacity=".32" d="M493 328.4c0 .2.8 1 1.8 1.7 1.5 1.3 1.6 1.2.3-.4s-2.1-2.1-2.1-1.3zm344.1 89.2c0 1.1.3 1.4.6.6.3-.7.2-1.6-.1-1.9-.3-.4-.6.2-.5 1.3zm-2 65c0 1.1.3 1.4.6.6.3-.7.2-1.6-.1-1.9-.3-.4-.6.2-.5 1.3zm16 15c0 1.1.3 1.4.6.6.3-.7.2-1.6-.1-1.9-.3-.4-.6.2-.5 1.3z"/><path fill-opacity=".42" d="M837.2 437.5c0 1.6.2 2.2.5 1.2.2-.9.2-2.3 0-3-.3-.6-.5.1-.5 1.8zm-.1 7.1c0 1.1.3 1.4.6.6.3-.7.2-1.6-.1-1.9-.3-.4-.6.2-.5 1.3z"/><path fill-opacity=".2" d="M835.3 468.5c0 2.7.2 3.8.4 2.2.2-1.5.2-3.7 0-5-.2-1.2-.4 0-.4 2.8z"/><path fill-opacity=".12" d="M818.1 422.6c0 1.1.3 1.4.6.6.3-.7.2-1.6-.1-1.9-.3-.4-.6.2-.5 1.3zm18 68c0 1.1.3 1.4.6.6.3-.7.2-1.6-.1-1.9-.3-.4-.6.2-.5 1.3zM641.8 610.7c1.2.2 3 .2 4 0 .9-.3-.1-.5-2.3-.4-2.2 0-3 .2-1.7.4zM763.2 680c0 1.4.2 1.9.5 1.2.2-.6.2-1.8 0-2.5-.3-.6-.5-.1-.5 1.3z"/><path fill-opacity=".38" d="M838.1 310.6c0 1.1.3 1.4.6.6.3-.7.2-1.6-.1-1.9-.3-.4-.6.2-.5 1.3zm-1 119c0 1.1.3 1.4.6.6.3-.7.2-1.6-.1-1.9-.3-.4-.6.2-.5 1.3zM163.8 610.7c.7.3 1.6.2 1.9-.1.4-.3-.2-.6-1.3-.5-1.1 0-1.4.3-.6.6zM396.3 708c0 2.5.2 3.5.4 2.2.2-1.2.2-3.2 0-4.5-.2-1.2-.4-.2-.4 2.3z"/><path fill-opacity=".07" d="M836.1 486.6c0 1.1.3 1.4.6.6.3-.7.2-1.6-.1-1.9-.3-.4-.6.2-.5 1.3zm-158 183c0 1.1.3 1.4.6.6.3-.7.2-1.6-.1-1.9-.3-.4-.6.2-.5 1.3zm-61 10c0 1.1.3 1.4.6.6.3-.7.2-1.6-.1-1.9-.3-.4-.6.2-.5 1.3z"/><path fill-opacity=".22" d="M837.1 388.6c0 1.1.3 1.4.6.6.3-.7.2-1.6-.1-1.9-.3-.4-.6.2-.5 1.3zm-18 66c0 1.1.3 1.4.6.6.3-.7.2-1.6-.1-1.9-.3-.4-.6.2-.5 1.3zm31 96c0 1.1.3 1.4.6.6.3-.7.2-1.6-.1-1.9-.3-.4-.6.2-.5 1.3z"/><path fill-opacity=".16" d="M835.2 462c0 1.4.2 1.9.5 1.2.2-.6.2-1.8 0-2.5-.3-.6-.5-.1-.5 1.3zm.9 35.6c0 1.1.3 1.4.6.6.3-.7.2-1.6-.1-1.9-.3-.4-.6.2-.5 1.3zm-219 220c0 1.1.3 1.4.6.6.3-.7.2-1.6-.1-1.9-.3-.4-.6.2-.5 1.3zm90 1c0 1.1.3 1.4.6.6.3-.7.2-1.6-.1-1.9-.3-.4-.6.2-.5 1.3zm-22.3 7.1c.7.3 1.6.2 1.9-.1.4-.3-.2-.6-1.3-.5-1.1 0-1.4.3-.6.6z"/><path fill-opacity=".11" d="M833.2 318c0 1.4.2 1.9.5 1.2.2-.6.2-1.8 0-2.5-.3-.6-.5-.1-.5 1.3zm.9 80.6c0 1.1.3 1.4.6.6.3-.7.2-1.6-.1-1.9-.3-.4-.6.2-.5 1.3zm1 52c0 1.1.3 1.4.6.6.3-.7.2-1.6-.1-1.9-.3-.4-.6.2-.5 1.3zm-64 274c0 1.1.3 1.4.6.6.3-.7.2-1.6-.1-1.9-.3-.4-.6.2-.5 1.3z"/><path fill-opacity=".45" d="M853.1 401.6c0 1.1.3 1.4.6.6.3-.7.2-1.6-.1-1.9-.3-.4-.6.2-.5 1.3zM837.2 451c0 1.9.2 2.7.5 1.7.2-.9.2-2.5 0-3.5-.3-.9-.5-.1-.5 1.8zM665.4 690.5c0 7.7.2 10.7.3 6.7.2-4 .2-10.3 0-14-.2-3.7-.3-.4-.3 7.3zm105.7-3.9c0 1.1.3 1.4.6.6.3-.7.2-1.6-.1-1.9-.3-.4-.6.2-.5 1.3zm-212.3 5.1c.6.2 1.8.2 2.5 0 .6-.3.1-.5-1.3-.5-1.4 0-1.9.2-1.2.5z"/><path fill-opacity=".27" d="M834.8 143.7c.6.2 1.8.2 2.5 0 .6-.3.1-.5-1.3-.5-1.4 0-1.9.2-1.2.5zm-1 14c1.2.2 3 .2 4 0 .9-.3-.1-.5-2.3-.4-2.2 0-3 .2-1.7.4zm-25.5 39c1.5.2 3.7.2 5 0 1.2-.2 0-.4-2.8-.4-2.7 0-3.8.2-2.2.4zm51 0c1.5.2 3.9.2 5.5 0 1.5-.2.2-.4-2.8-.4s-4.3.2-2.7.4zM837.2 406c0 1.4.2 1.9.5 1.2.2-.6.2-1.8 0-2.5-.3-.6-.5-.1-.5 1.3zm12.9 115.6c0 1.1.3 1.4.6.6.3-.7.2-1.6-.1-1.9-.3-.4-.6.2-.5 1.3z"/><path fill-opacity=".37" d="M171.8 610.7c2.3.2 5.9.2 8 0 2-.2.1-.4-4.3-.4-4.4 0-6.1.2-3.7.4zm70 0c1.2.2 3 .2 4 0 .9-.3-.1-.5-2.3-.4-2.2 0-3 .2-1.7.4zm16 0c1.2.2 3 .2 4 0 .9-.3-.1-.5-2.3-.4-2.2 0-3 .2-1.7.4zm679 0c.7.3 1.6.2 1.9-.1.4-.3-.2-.6-1.3-.5-1.1 0-1.4.3-.6.6zm7 0c1.7.2 4.7.2 6.5 0 1.7-.2.3-.4-3.3-.4-3.6 0-5 .2-3.2.4zM396.3 716c0 2.5.2 3.5.4 2.2.2-1.2.2-3.2 0-4.5-.2-1.2-.4-.2-.4 2.3z"/><path fill-opacity=".41" d="M550 300.4c0 .2.8 1 1.8 1.7 1.5 1.3 1.6 1.2.3-.4s-2.1-2.1-2.1-1.3zm288.1 13.2c0 1.1.3 1.4.6.6.3-.7.2-1.6-.1-1.9-.3-.4-.6.2-.5 1.3zm-1 120c0 1.1.3 1.4.6.6.3-.7.2-1.6-.1-1.9-.3-.4-.6.2-.5 1.3zm-1.8 60.9c0 2.2.2 3 .4 1.7.2-1.2.2-3 0-4-.3-.9-.5.1-.4 2.3zM424.1 673.6c0 1.1.3 1.4.6.6.3-.7.2-1.6-.1-1.9-.3-.4-.6.2-.5 1.3zm.2 10.4c0 2.5.2 3.5.4 2.2.2-1.2.2-3.2 0-4.5-.2-1.2-.4-.2-.4 2.3z"/><path fill-opacity=".39" d="M825.8 610.7c1.2.2 3 .2 4 0 .9-.3-.1-.5-2.3-.4-2.2 0-3 .2-1.7.4zm-156 117c.6.2 1.8.2 2.5 0 .6-.3.1-.5-1.3-.5-1.4 0-1.9.2-1.2.5z"/><path fill-opacity=".49" d="M837.2 462c0 1.4.2 1.9.5 1.2.2-.6.2-1.8 0-2.5-.3-.6-.5-.1-.5 1.3z"/><path fill-opacity=".13" d="M774.1 221.6c0 1.1.3 1.4.6.6.3-.7.2-1.6-.1-1.9-.3-.4-.6.2-.5 1.3zm64.1 56.4c0 1.4.2 1.9.5 1.2.2-.6.2-1.8 0-2.5-.3-.6-.5-.1-.5 1.3zm-2 216c0 1.4.2 1.9.5 1.2.2-.6.2-1.8 0-2.5-.3-.6-.5-.1-.5 1.3zM617.8 610.7c1.2.2 3 .2 4 0 .9-.3-.1-.5-2.3-.4-2.2 0-3 .2-1.7.4z"/><path fill-opacity=".46" d="M719.1 531.6c0 1.1.3 1.4.6.6.3-.7.2-1.6-.1-1.9-.3-.4-.6.2-.5 1.3zM665.2 675c0 1.4.2 1.9.5 1.2.2-.6.2-1.8 0-2.5-.3-.6-.5-.1-.5 1.3z"/><path fill="none" d="M682.2 208.1c.2.7 1.7 1.4 3.4 1.5 1.6.2 2.2 0 1.4-.3-.8-.3-2.3-1-3.4-1.5-1.3-.7-1.7-.7-1.4.3zm-5.7.9c-1.9.8-1.9.9.3.9 1.2.1 2.2-.4 2.2-.9 0-.6-.1-1-.2-.9-.2 0-1.2.4-2.3.9zm23.1 6.4c.3.8 1.6 1.6 3 1.9 3.2.6 3 .1-.6-1.8-2.4-1.3-2.9-1.3-2.4-.1zM369.1 221c-.8.5-.1.9 2 1.3 4.2.6 4.6.3 1.6-1-1.3-.6-3-.8-3.6-.3zm343.9 2.5c1.3 1.4 2.6 2.5 2.8 2.5.3 0-.5-1.1-1.8-2.5s-2.6-2.5-2.8-2.5c-.3 0 .5 1.1 1.8 2.5zm4.1 4c0 .5.6 2.1 1.4 3.5.8 1.4 1.4 2 1.4 1.5 0-.6-.6-2.1-1.4-3.5-.8-1.4-1.4-2.1-1.4-1.5zm-29.5 19.7c.3.5 1 .6 1.5.3 1.3-.9 1.1-1.2-.6-1.2-.8 0-1.2.4-.9.9zm8.4 4.5c2.9 2.3 6 3.6 6 2.5 0-.4-1.5-1.4-3.2-2.2-1.8-.7-3.7-1.6-4.3-1.8-.5-.3.1.4 1.5 1.5zm-5.4.6c.3 1 .9 1.5 1.2 1.2.3-.3 0-1.1-.7-1.8-1-.9-1.1-.8-.5.6zm-344.4 1.3c.9.9 2.1 1.5 2.7 1.3.6-.2-.2-1-1.7-1.7-2.5-1.1-2.5-1.1-1 .4zm6.8 4.9c1.3 1.4 2.6 2.5 2.8 2.5.3 0-.5-1.1-1.8-2.5s-2.6-2.5-2.8-2.5c-.3 0 .5 1.1 1.8 2.5zm-52.2 2.2c.7.3 1.6.2 1.9-.1.4-.3-.2-.6-1.3-.5-1.1 0-1.4.3-.6.6zm60.9 3.4c.7.7 1.5 1 1.8.7.3-.3-.2-.9-1.2-1.2-1.4-.6-1.5-.5-.6.5zm-49.7.3c0 .2.8 1 1.8 1.7 1.5 1.3 1.6 1.2.3-.4s-2.1-2.1-2.1-1.3zm55 2c0 .2.9.6 2 .9 1.1.3 1.8.1 1.4-.4-.5-.9-3.4-1.3-3.4-.5zm-47 2.6c0 .6.7 1 1.5 1s1.5-.2 1.5-.4-.7-.6-1.5-1c-.8-.3-1.5-.1-1.5.4zm5 1c0 .6.7 1 1.5 1s1.5-.2 1.5-.4-.7-.6-1.5-1c-.8-.3-1.5-.1-1.5.4zm50.6-.1c.5.5 2 1.2 3.4 1.5l2.5.7-2.5-1.5c-2.8-1.7-5-2.1-3.4-.7zm-44.9 1.2c.7.7 1.5 1 1.8.7.3-.3-.2-.9-1.2-1.2-1.4-.6-1.5-.5-.6.5zm53.1 1.6c.7.3 1.6.2 1.9-.1.4-.3-.2-.6-1.3-.5-1.1 0-1.4.3-.6.6zm8.7 2.3c1.1.5 3.4.8 5 .8h3l-3-.8c-1.6-.4-3.9-.8-5-.8l-2-.1 2 .9zm-45.9 3.5c.4.9 1.6 2.1 2.8 2.7 1.9 1 1.9.9-.3-1.6-2.8-3-3.3-3.2-2.5-1.1zM294 300.4c0 .2.7.7 1.6 1 .8.3 1.2.2.9-.4-.6-1-2.5-1.4-2.5-.6zm4 3c0 .2.9.6 2 .9 1.1.3 1.8.1 1.4-.4-.5-.9-3.4-1.3-3.4-.5zm211.5 79.7c-.4.6-.5 1.2-.2 1.5.2.3.7-.2 1-1.1.7-1.7.1-2-.8-.4zm52.4 17.6c-1.3 1.6-1.2 1.7.4.4 1.6-1.3 2.1-2.1 1.3-2.1-.2 0-1 .8-1.7 1.7zm-57.8 1.9c0 1.1.3 1.4.6.6.3-.7.2-1.6-.1-1.9-.3-.4-.6.2-.5 1.3zm-1 5c0 1.1.3 1.4.6.6.3-.7.2-1.6-.1-1.9-.3-.4-.6.2-.5 1.3zm-.9 7.9c0 1.6.2 2.2.5 1.2.2-.9.2-2.3 0-3-.3-.6-.5.1-.5 1.8zm0 5.5c0 1.4.2 1.9.5 1.2.2-.6.2-1.8 0-2.5-.3-.6-.5-.1-.5 1.3zm-.1 4c0 .8.4 2.2.9 3 1.2 1.8 1.2.2 0-2.5-.6-1.3-.9-1.5-.9-.5zm248.4 30c-.3.5-.1 1 .4 1 .6 0 1.1-.5 1.1-1 0-.6-.2-1-.4-1-.3 0-.8.4-1.1 1zm-133.7 88.7c.7.3 1.6.2 1.9-.1.4-.3-.2-.6-1.3-.5-1.1 0-1.4.3-.6.6zM294 590.2c-1.9.5-3.9 1.3-4.4 1.8-.5.5 1 .3 3.2-.3 2.2-.7 4.4-1.6 4.8-2 .8-.8 1-.8-3.6.5zm6.5-.2c-.3.5-.1 1 .4 1 .6 0 1.1-.5 1.1-1 0-.6-.2-1-.4-1-.3 0-.8.4-1.1 1zm16 1c-.4.6.3 1 1.4 1 2.5 0 2.7-.6.6-1.3-.8-.4-1.7-.2-2 .3zm5.5 2c.8.5 2 1 2.5 1 .6 0 .3-.5-.5-1s-1.9-1-2.5-1c-.5 0-.3.5.5 1zm-31.8 34.6c1 1 2 1.6 2.2 1.3.3-.3-.5-1.1-1.7-1.8-2.1-1.3-2.1-1.2-.5.5zm36.3-.6c-.3.5-.2 1 .4 1 .5 0 1.3-.5 1.6-1 .3-.6.2-1-.4-1-.5 0-1.3.4-1.6 1zm-4.7 1.7c.6.2 1.8.2 2.5 0 .6-.3.1-.5-1.3-.5-1.4 0-1.9.2-1.2.5zm-23 1c.6.2 1.8.2 2.5 0 .6-.3.1-.5-1.3-.5-1.4 0-1.9.2-1.2.5zm7 0c1.2.2 3.2.2 4.5 0 1.2-.2.2-.4-2.3-.4s-3.5.2-2.2.4z"/><path fill-opacity=".25" d="M840.8 157.7c.6.2 1.8.2 2.5 0 .6-.3.1-.5-1.3-.5-1.4 0-1.9.2-1.2.5zM838.2 294c0 1.4.2 1.9.5 1.2.2-.6.2-1.8 0-2.5-.3-.6-.5-.1-.5 1.3zM391.3 423.7c.9.2 2.3.2 3 0 .6-.3-.1-.5-1.8-.5-1.6 0-2.2.2-1.2.5zm460.8 36.9c0 1.1.3 1.4.6.6.3-.7.2-1.6-.1-1.9-.3-.4-.6.2-.5 1.3zM155 689c0 .5.5 1 1 1 .6 0 1-.5 1-1 0-.6-.4-1-1-1-.5 0-1 .4-1 1z"/><path fill-opacity=".08" d="M832.1 265.6c0 1.1.3 1.4.6.6.3-.7.2-1.6-.1-1.9-.3-.4-.6.2-.5 1.3zM394.3 398.7c1.5.2 3.7.2 5 0 1.2-.2 0-.4-2.8-.4-2.7 0-3.8.2-2.2.4zm48 256c.9.2 2.3.2 3 0 .6-.3-.1-.5-1.8-.5-1.6 0-2.2.2-1.2.5zM617.2 666c0 1.4.2 1.9.5 1.2.2-.6.2-1.8 0-2.5-.3-.6-.5-.1-.5 1.3zm-.1 39.6c0 1.1.3 1.4.6.6.3-.7.2-1.6-.1-1.9-.3-.4-.6.2-.5 1.3z"/><path fill-opacity=".01" d="M686 210.9c0 .6.4 1.2.8 1.5.5.3.9-.1.9-.9s-.4-1.5-.9-1.5c-.4 0-.8.4-.8.9zm11 3.5c0 .2.8 1 1.8 1.7 1.5 1.3 1.6 1.2.3-.4s-2.1-2.1-2.1-1.3zm.7 36.7c.7.7 1.5 1 1.8.7.3-.3-.2-.9-1.2-1.2-1.4-.6-1.5-.5-.6.5zM305 262.4c0 .2.7.7 1.6 1 .8.3 1.2.2.9-.4-.6-1-2.5-1.4-2.5-.6zm87.8 11.3c.7.3 1.6.2 1.9-.1.4-.3-.2-.6-1.3-.5-1.1 0-1.4.3-.6.6zm117.8 110c-.6 1.4-.5 1.5.5.6.7-.7 1-1.5.7-1.8-.3-.3-.9.2-1.2 1.2zm48.3 20c-1.3 1.6-1.2 1.7.4.4.9-.7 1.7-1.5 1.7-1.7 0-.8-.8-.3-2.1 1.3zm-55.8 9.9c0 1.1.3 1.4.6.6.3-.7.2-1.6-.1-1.9-.3-.4-.6.2-.5 1.3zm102.7 130.1c.7.3 1.6.2 1.9-.1.4-.3-.2-.6-1.3-.5-1.1 0-1.4.3-.6.6z"/><path fill-opacity=".02" d="M687.8 211.7c.7.3 1.6.2 1.9-.1.4-.3-.2-.6-1.3-.5-1.1 0-1.4.3-.6.6zm-3.2 32.5c.3.5 1 .6 1.5.3 1.3-.9 1.1-1.2-.6-1.2-.8 0-1.2.4-.9.9zm-369.8 64.5c.7.3 1.6.2 1.9-.1.4-.3-.2-.6-1.3-.5-1.1 0-1.4.3-.6.6z"/><path fill-opacity=".09" d="M834.2 394c0 1.4.2 1.9.5 1.2.2-.6.2-1.8 0-2.5-.3-.6-.5-.1-.5 1.3zM306.8 593.7c.6.2 1.8.2 2.5 0 .6-.3.1-.5-1.3-.5-1.4 0-1.9.2-1.2.5zm310.4 115.8c0 1.6.2 2.2.5 1.2.2-.9.2-2.3 0-3-.3-.6-.5.1-.5 1.8zm-106 8.5c0 1.4.2 1.9.5 1.2.2-.6.2-1.8 0-2.5-.3-.6-.5-.1-.5 1.3z"/><path fill-opacity=".4" d="M839.2 230c0 1.4.2 1.9.5 1.2.2-.6.2-1.8 0-2.5-.3-.6-.5-.1-.5 1.3zm-415 447.5c0 1.6.2 2.2.5 1.2.2-.9.2-2.3 0-3-.3-.6-.5.1-.5 1.8zm.1 18.5c0 4.7.2 6.6.4 4.2.2-2.3.2-6.1 0-8.5-.2-2.3-.4-.4-.4 4.3zm-28.2 6.6c0 1.1.3 1.4.6.6.3-.7.2-1.6-.1-1.9-.3-.4-.6.2-.5 1.3z"/><path fill-opacity=".35" d="M834.2 429.5c0 1.6.2 2.2.5 1.2.2-.9.2-2.3 0-3-.3-.6-.5.1-.5 1.8zM233.8 610.7c1.2.2 3 .2 4 0 .9-.3-.1-.5-2.3-.4-2.2 0-3 .2-1.7.4zm16 0c1.2.2 3 .2 4 0 .9-.3-.1-.5-2.3-.4-2.2 0-3 .2-1.7.4zm16 0c1.2.2 3 .2 4 0 .9-.3-.1-.5-2.3-.4-2.2 0-3 .2-1.7.4zm528 0c5.7.2 14.7.2 20 0 5.3-.1.7-.3-10.3-.3s-15.4.2-9.7.3zm55.5 0c4.3.2 11 .2 15 0 4-.1.5-.3-7.8-.3-8.2 0-11.5.2-7.2.3z"/><path fill-opacity=".33" d="M837.1 420.6c0 1.1.3 1.4.6.6.3-.7.2-1.6-.1-1.9-.3-.4-.6.2-.5 1.3zM213.8 610.7c3.4.2 8.8.2 12 0 3.1-.2.3-.3-6.3-.3s-9.2.1-5.7.3zm668 0c5.7.2 14.7.2 20 0 5.3-.1.7-.3-10.3-.3s-15.4.2-9.7.3z"/><path fill-opacity=".29" d="M842.8 143.7c.7.3 1.6.2 1.9-.1.4-.3-.2-.6-1.3-.5-1.1 0-1.4.3-.6.6zm-53.5 53c3.2.2 8.1.2 11 0 2.9-.2.3-.3-5.8-.3-6 0-8.4.1-5.2.3zm82 0c2 .2 5.4.2 7.5 0 2-.2.3-.4-3.8-.4s-5.8.2-3.7.4zm13.5 0c.7.3 1.6.2 1.9-.1.4-.3-.2-.6-1.3-.5-1.1 0-1.4.3-.6.6zm-47.7 212.9c0 1.1.3 1.4.6.6.3-.7.2-1.6-.1-1.9-.3-.4-.6.2-.5 1.3z"/><path fill-opacity=".31" d="M837.1 414.6c0 1.1.3 1.4.6.6.3-.7.2-1.6-.1-1.9-.3-.4-.6.2-.5 1.3z"/><path fill-opacity=".18" d="M300.8 594.7c.7.3 1.6.2 1.9-.1.4-.3-.2-.6-1.3-.5-1.1 0-1.4.3-.6.6z"/><path fill-opacity=".44" d="M839.1 238.6c0 1.1.3 1.4.6.6.3-.7.2-1.6-.1-1.9-.3-.4-.6.2-.5 1.3zm-75 456c0 1.1.3 1.4.6.6.3-.7.2-1.6-.1-1.9-.3-.4-.6.2-.5 1.3z"/><path fill-opacity=".3" d="M834.2 421c0 1.9.2 2.7.5 1.7.2-.9.2-2.5 0-3.5-.3-.9-.5-.1-.5 1.8zm16.9 81.6c0 1.1.3 1.4.6.6.3-.7.2-1.6-.1-1.9-.3-.4-.6.2-.5 1.3zM576.8 602.7c.7.3 1.6.2 1.9-.1.4-.3-.2-.6-1.3-.5-1.1 0-1.4.3-.6.6z"/><path fill-opacity=".03" d="M680.8 211.7c.7.3 1.6.2 1.9-.1.4-.3-.2-.6-1.3-.5-1.1 0-1.4.3-.6.6zm170.3 313.9c0 1.1.3 1.4.6.6.3-.7.2-1.6-.1-1.9-.3-.4-.6.2-.5 1.3z"/><path fill-opacity=".17" d="M506.1 419.6c0 1.1.3 1.4.6.6.3-.7.2-1.6-.1-1.9-.3-.4-.6.2-.5 1.3z"/><path fill-opacity=".26" d="M850.1 525.6c0 1.1.3 1.4.6.6.3-.7.2-1.6-.1-1.9-.3-.4-.6.2-.5 1.3z"/><path fill-opacity=".18" d="M842.8 205.7c.7.3 1.6.2 1.9-.1.4-.3-.2-.6-1.3-.5-1.1 0-1.4.3-.6.6z"/><path fill-opacity=".19" d="M834.8 205.7c.7.3 1.6.2 1.9-.1.4-.3-.2-.6-1.3-.5-1.1 0-1.4.3-.6.6zm-206.5 405c.9.2 2.3.2 3 0 .6-.3-.1-.5-1.8-.5-1.6 0-2.2.2-1.2.5z"/><path fill-opacity=".14" d="M311.8 594.7c.7.3 1.6.2 1.9-.1.4-.3-.2-.6-1.3-.5-1.1 0-1.4.3-.6.6zm293.5 16c.9.2 2.3.2 3 0 .6-.3-.1-.5-1.8-.5-1.6 0-2.2.2-1.2.5z"/><path fill-opacity=".07" d="M559.9 405.7c-1.3 1.6-1.2 1.7.4.4 1.6-1.3 2.1-2.1 1.3-2.1-.2 0-1 .8-1.7 1.7z"/><path fill-opacity=".04" d="M504.1 416.6c0 1.1.3 1.4.6.6.3-.7.2-1.6-.1-1.9-.3-.4-.6.2-.5 1.3zM302.8 628.7c.7.3 1.6.2 1.9-.1.4-.3-.2-.6-1.3-.5-1.1 0-1.4.3-.6.6zM711.5 225c1 1.1 2 2 2.3 2 .3 0-.3-.9-1.3-2s-2-2-2.3-2c-.3 0 .3.9 1.3 2zm-53.3 289c0 1.4.2 1.9.5 1.2.2-.6.2-1.8 0-2.5-.3-.6-.5-.1-.5 1.3z"/><path fill-opacity=".43" d="M353.8 610.7c1.2.2 3 .2 4 0 .9-.3-.1-.5-2.3-.4-2.2 0-3 .2-1.7.4zm16 0c1.2.2 3 .2 4 0 .9-.3-.1-.5-2.3-.4-2.2 0-3 .2-1.7.4zm16 0c1.2.2 3 .2 4 0 .9-.3-.1-.5-2.3-.4-2.2 0-3 .2-1.7.4zm23.5 0c.9.2 2.3.2 3 0 .6-.3-.1-.5-1.8-.5-1.6 0-2.2.2-1.2.5z"/><path fill-opacity=".1" d="M649.8 610.7c1.2.2 3 .2 4 0 .9-.3-.1-.5-2.3-.4-2.2 0-3 .2-1.7.4z"/><path fill-opacity=".45" d="M361.8 610.7c1.2.2 3 .2 4 0 .9-.3-.1-.5-2.3-.4-2.2 0-3 .2-1.7.4z"/><path fill-opacity=".39" d="M377.8 610.7c1.2.2 3 .2 4 0 .9-.3-.1-.5-2.3-.4-2.2 0-3 .2-1.7.4zm18 0c2.3.2 5.9.2 8 0 2-.2.1-.4-4.3-.4-4.4 0-6.1.2-3.7.4z"/></svg>