<svg xmlns="http://www.w3.org/2000/svg" version="1.0" viewBox="0 0 1600 1600"><path fill="#D4AA22" fill-opacity=".12" d="M1079.1 622.6c0 1.1.3 1.4.6.6.3-.7.2-1.6-.1-1.9-.3-.4-.6.2-.5 1.3zm11.1 291.4c0 1.4.2 1.9.5 1.2.2-.6.2-1.8 0-2.5-.3-.6-.5-.1-.5 1.3zm-236.4 48.7c.7.3 1.6.2 1.9-.1.4-.3-.2-.6-1.3-.5-1.1 0-1.4.3-.6.6zm28 0c1.2.2 3.2.2 4.5 0 1.2-.2.2-.4-2.3-.4s-3.5.2-2.2.4zM751.2 1018c0 1.4.2 1.9.5 1.2.2-.6.2-1.8 0-2.5-.3-.6-.5-.1-.5 1.3zm106 10c0 1.4.2 1.9.5 1.2.2-.6.2-1.8 0-2.5-.3-.6-.5-.1-.5 1.3zm-.1 6.6c0 1.1.3 1.4.6.6.3-.7.2-1.6-.1-1.9-.3-.4-.6.2-.5 1.3zm.1 15.4c0 1.4.2 1.9.5 1.2.2-.6.2-1.8 0-2.5-.3-.6-.5-.1-.5 1.3zm61 9c0 1.9.2 2.7.5 1.7.2-.9.2-2.5 0-3.5-.3-.9-.5-.1-.5 1.8z"/><path fill="#D9AC20" fill-opacity=".16" d="M1072.1 617.6c0 1.1.3 1.4.6.6.3-.7.2-1.6-.1-1.9-.3-.4-.6.2-.5 1.3zm-210.3 390.1c1.2.2 3.2.2 4.5 0 1.2-.2.2-.4-2.3-.4s-3.5.2-2.2.4zm-4.6 10.3c0 1.4.2 1.9.5 1.2.2-.6.2-1.8 0-2.5-.3-.6-.5-.1-.5 1.3zm-.1 39.6c0 1.1.3 1.4.6.6.3-.7.2-1.6-.1-1.9-.3-.4-.6.2-.5 1.3z"/><path fill="#D5AC20" fill-opacity=".22" d="M1073.2 670c0 1.4.2 1.9.5 1.2.2-.6.2-1.8 0-2.5-.3-.6-.5-.1-.5 1.3zm.9 80.6c0 1.1.3 1.4.6.6.3-.7.2-1.6-.1-1.9-.3-.4-.6.2-.5 1.3zm-327 20c0 1.1.3 1.4.6.6.3-.7.2-1.6-.1-1.9-.3-.4-.6.2-.5 1.3zm328 32c0 1.1.3 1.4.6.6.3-.7.2-1.6-.1-1.9-.3-.4-.6.2-.5 1.3zm-205.3 205.1c1.2.2 3.2.2 4.5 0 1.2-.2.2-.4-2.3-.4s-3.5.2-2.2.4zm41 0c.6.2 1.8.2 2.5 0 .6-.3.1-.5-1.3-.5-1.4 0-1.9.2-1.2.5zm100.3 68.9c0 1.1.3 1.4.6.6.3-.7.2-1.6-.1-1.9-.3-.4-.6.2-.5 1.3z"/><path fill="#D8AD23" fill-opacity=".25" d="M1081.3 509.7c.9.2 2.3.2 3 0 .6-.3-.1-.5-1.8-.5-1.6 0-2.2.2-1.2.5zm-67.2 63.9c0 1.1.3 1.4.6.6.3-.7.2-1.6-.1-1.9-.3-.4-.6.2-.5 1.3zm65.1 56.4c0 1.4.2 1.9.5 1.2.2-.6.2-1.8 0-2.5-.3-.6-.5-.1-.5 1.3zM631.3 775.7c.9.2 2.5.2 3.5 0 .9-.3.1-.5-1.8-.5-1.9 0-2.7.2-1.7.5zm445.9 70.3c0 1.4.2 1.9.5 1.2.2-.6.2-1.8 0-2.5-.3-.6-.5-.1-.5 1.3z"/><path fill="#D4AA22" fill-opacity=".24" d="M1085.8 509.7c.7.3 1.6.2 1.9-.1.4-.3-.2-.6-1.3-.5-1.1 0-1.4.3-.6.6zm-26.7 264.9c0 1.1.3 1.4.6.6.3-.7.2-1.6-.1-1.9-.3-.4-.6.2-.5 1.3zm-422.3 1.1c.6.2 1.8.2 2.5 0 .6-.3.1-.5-1.3-.5-1.4 0-1.9.2-1.2.5zm440.3 66.9c0 1.1.3 1.4.6.6.3-.7.2-1.6-.1-1.9-.3-.4-.6.2-.5 1.3zm-72.9 189.4c0 1.4.2 1.9.5 1.2.2-.6.2-1.8 0-2.5-.3-.6-.5-.1-.5 1.3z"/><path fill="#D6AD24" fill-opacity=".2" d="M1073.2 666c0 1.4.2 1.9.5 1.2.2-.6.2-1.8 0-2.5-.3-.6-.5-.1-.5 1.3zm-317 51c0 1.9.2 2.7.5 1.7.2-.9.2-2.5 0-3.5-.3-.9-.5-.1-.5 1.8zm97.6 260.7c.7.3 1.6.2 1.9-.1.4-.3-.2-.6-1.3-.5-1.1 0-1.4.3-.6.6zm-47.5 30c1.5.2 3.7.2 5 0 1.2-.2 0-.4-2.8-.4-2.7 0-3.8.2-2.2.4zM676.2 1037c0 1.9.2 2.7.5 1.7.2-.9.2-2.5 0-3.5-.3-.9-.5-.1-.5 1.8z"/><path fill="#D9A626" fill-opacity=".08" d="M1079.1 617.6c0 1.1.3 1.4.6.6.3-.7.2-1.6-.1-1.9-.3-.4-.6.2-.5 1.3zM634.3 750.7c1.5.2 3.9.2 5.5 0 1.5-.2.2-.4-2.8-.4s-4.3.2-2.7.4zm442.8 80.9c0 1.1.3 1.4.6.6.3-.7.2-1.6-.1-1.9-.3-.4-.6.2-.5 1.3zm13.1 86.4c0 1.4.2 1.9.5 1.2.2-.6.2-1.8 0-2.5-.3-.6-.5-.1-.5 1.3zm-407.9 88.7c.9.2 2.5.2 3.5 0 .9-.3.1-.5-1.8-.5-1.9 0-2.7.2-1.7.5zm-73.5 5c.7.3 1.6.2 1.9-.1.4-.3-.2-.6-1.3-.5-1.1 0-1.4.3-.6.6zm309.5 24.3c0 2.5.2 3.5.4 2.2.2-1.2.2-3.2 0-4.5-.2-1.2-.4-.2-.4 2.3z"/><path fill="#C93" fill-opacity=".02" d="M540.8 943.7c.7.3 1.6.2 1.9-.1.4-.3-.2-.6-1.3-.5-1.1 0-1.4.3-.6.6zm-130 34c.6.2 1.8.2 2.5 0 .6-.3.1-.5-1.3-.5-1.4 0-1.9.2-1.2.5zm54.5 0c9.7.2 25.7.2 35.5 0 9.7-.1 1.7-.2-17.8-.2s-27.5.1-17.7.2zm55.5 0c.6.2 1.8.2 2.5 0 .6-.3.1-.5-1.3-.5-1.4 0-1.9.2-1.2.5zm155 0c2.3.2 6.1.2 8.5 0 2.3-.2.4-.4-4.3-.4s-6.6.2-4.2.4zm30.5 0c1.5.2 3.9.2 5.5 0 1.5-.2.2-.4-2.8-.4s-4.3.2-2.7.4zm111.5 0c1.2.2 3.2.2 4.5 0 1.2-.2.2-.4-2.3-.4s-3.5.2-2.2.4zm54.5 0c7.6.2 19.8.2 27 0 7.3-.1 1.1-.3-13.8-.3-14.8 0-20.8.2-13.2.3zm107.5 0c2.3.2 6.1.2 8.5 0 2.3-.2.4-.4-4.3-.4s-6.6.2-4.2.4zm142.5 0c1.5.2 3.9.2 5.5 0 1.5-.2.2-.4-2.8-.4s-4.3.2-2.7.4zm55.5 0c1.2.2 3.2.2 4.5 0 1.2-.2.2-.4-2.3-.4s-3.5.2-2.2.4zm-317 36c.6.2 1.8.2 2.5 0 .6-.3.1-.5-1.3-.5-1.4 0-1.9.2-1.2.5zm-77.6 8.3c0 1.4.2 1.9.5 1.2.2-.6.2-1.8 0-2.5-.3-.6-.5-.1-.5 1.3zm-45 5c0 1.4.2 1.9.5 1.2.2-.6.2-1.8 0-2.5-.3-.6-.5-.1-.5 1.3zm106 13c0 1.4.2 1.9.5 1.2.2-.6.2-1.8 0-2.5-.3-.6-.5-.1-.5 1.3zm104 10.5c0 1.6.2 2.2.5 1.2.2-.9.2-2.3 0-3-.3-.6-.5.1-.5 1.8zm-210 2.5c0 1.9.2 2.7.5 1.7.2-.9.2-2.5 0-3.5-.3-.9-.5-.1-.5 1.8z"/><path fill="#DA2" fill-opacity=".06" d="M1079.1 614.6c0 1.1.3 1.4.6.6.3-.7.2-1.6-.1-1.9-.3-.4-.6.2-.5 1.3zm-99 176c0 1.1.3 1.4.6.6.3-.7.2-1.6-.1-1.9-.3-.4-.6.2-.5 1.3zm97 38c0 1.1.3 1.4.6.6.3-.7.2-1.6-.1-1.9-.3-.4-.6.2-.5 1.3zM659.8 977.7c2.3.2 6.1.2 8.5 0 2.3-.2.4-.4-4.3-.4s-6.6.2-4.2.4zm483.5 0c.9.2 2.3.2 3 0 .6-.3-.1-.5-1.8-.5-1.6 0-2.2.2-1.2.5zm-273.5 36c.7.3 1.6.2 1.9-.1.4-.3-.2-.6-1.3-.5-1.1 0-1.4.3-.6.6zm-25.7 13.9c0 1.1.3 1.4.6.6.3-.7.2-1.6-.1-1.9-.3-.4-.6.2-.5 1.3zm.1 4.4c0 1.4.2 1.9.5 1.2.2-.6.2-1.8 0-2.5-.3-.6-.5-.1-.5 1.3zm0 16c0 1.4.2 1.9.5 1.2.2-.6.2-1.8 0-2.5-.3-.6-.5-.1-.5 1.3zm-105.9 12c0 2.5.2 3.5.4 2.2.2-1.2.2-3.2 0-4.5-.2-1.2-.4-.2-.4 2.3zm105.9-2c0 1.4.2 1.9.5 1.2.2-.6.2-1.8 0-2.5-.3-.6-.5-.1-.5 1.3z"/><path fill="#D7AC23" fill-opacity=".37" d="M1074.2 757.5c0 1.6.2 2.2.5 1.2.2-.9.2-2.3 0-3-.3-.6-.5.1-.5 1.8zM411.8 962.7c2.3.2 6.1.2 8.5 0 2.3-.2.4-.4-4.3-.4s-6.6.2-4.2.4zm70 0c1.2.2 3.2.2 4.5 0 1.2-.2.2-.4-2.3-.4s-3.5.2-2.2.4zm16 0c1.2.2 3.2.2 4.5 0 1.2-.2.2-.4-2.3-.4s-3.5.2-2.2.4zm679 0c.6.2 1.8.2 2.5 0 .6-.3.1-.5-1.3-.5-1.4 0-1.9.2-1.2.5zm6.9 0c1.8.2 5 .2 7 0 2.1-.2.7-.4-3.2-.4-3.8 0-5.5.2-3.8.4z"/><g fill="#FC0" stroke-width="0"><path d="M1068.1 444.7c-12.3 6.4-13.5 23.4-2.2 30.8 7.1 4.7 15.7 4.2 21.9-1.3 8.6-7.7 8-20.7-1.4-27.8-4.7-3.6-13.2-4.4-18.3-1.7zm12.7 11.3c3.1 2.9 2.9 7.3-.4 9.9-1.5 1.2-3.4 2.1-4.4 2.1-3.1 0-7-3.9-7-7.1 0-6.1 7.3-9.1 11.8-4.9zm-15.2 28.2c-.3.7-.6 3.4-.8 6l-.3 4.8h22.5v-4.8c0-6.7-.6-7.2-6.5-6.1-4.5.9-7.8.7-12.8-.7-.9-.3-1.9.1-2.1.8zM447.5 490c1.2 8.5 3.3 15.9 6.6 22.3 12.6 24.8 36.1 44.5 80.1 67.2 12.4 6.4 47 22.5 48.3 22.5.2 0 2.8 1.1 5.7 2.4 2.9 1.3 9.8 4.3 15.3 6.6 75.3 31.6 91.6 39.9 120 61 12.9 9.5 26.5 23.1 30.1 30.1 2.7 5 2.9 6.2 2.8 15.9 0 6.8-.8 13.9-2.1 20-5.7 25.5-5.8 26.4-5.8 41 0 16 1.2 21.7 6.6 30.1 1.6 2.5 2.9 4.9 2.9 5.2 0 1.6-1.7.5-3.2-2.1-.9-1.5-2.8-4-4.1-5.6-1.4-1.6-3.8-5.5-5.4-8.7-1.5-3.2-3.2-5.8-3.7-5.8-.5-.1-3.8 2.1-7.5 4.7-3.6 2.7-11.5 8.2-17.6 12.3-28.4 19.1-47.7 34.6-56.1 45.1-6.2 7.8-8.9 12.1-18.1 28.8-21.6 39.1-38.6 53.5-73.9 62.5-10.9 2.7-27.2 3.4-34.8 1.4-8-2.2-16.4-6.9-21-12-6.9-7.6-9.9-14.6-10.4-24.4-.5-10.3 1.3-17 6.9-25.5 9.8-14.6 24.2-22.7 71.1-40 30.1-11.1 45.9-21.1 45.8-29.1-.1-4.6-5.6-9-14.7-11.5-5.7-1.6-6.2-1.9-6.8-5-1.6-9-13.4-14.6-27.2-12.9-5.8.7-6 1.4-1 3.1 2.8.9 2 1.1-6.9 1.7-5.6.3-12.3 1.1-14.9 1.8-4.5 1.1-4.7 1.3-2.9 2.7 3.4 2.6 21.5 11.1 25 11.8 4.1.8 3.5 2.4-.9 2.5-3.2 0-3.2 0 1.3 2.1 3 1.4 6.8 2.1 11.6 2.2 6.7.1 7.5-.1 11.2-3.2 4.8-3.8 6.4-3.9 11.6-.9 9.3 5.3 7.7 10-6.1 16.9-11.7 6-21.6 9.3-46.8 15.8-18.9 4.9-25.9 7.3-37.8 13.1-17 8.4-31.5 24.1-36.3 39.4-2.5 7.8-2.9 20.9-1 28.5 2 7.8 7.3 17.6 12.4 23.2 3.8 4.1 15.2 12.8 16.9 12.8.5 0 1.8.7 2.9 1.5 1.7 1.3-2.2 1.4-34.2 1.5h-36.2l-1.2-3c-1.4-3.5-3.7-5-7.4-5-3.8 0-5.4.9-7.7 4.6l-2.1 3.4h-12.1c-6.7 0-12.7-.4-13.3-.8-.6-.4-1.8-2.1-2.7-3.7-2.3-4.5-7.2-8.8-10.1-8.8-2.5.1-8.6 4.2-16.6 11.3-1.9 1.8-5.2 4.3-7.2 5.7-2.1 1.4-3.8 2.8-3.8 3.2 0 .3 1.6 1.7 3.5 3 3.3 2.2 4.5 3.2 10.5 8.4 11.5 10 14.9 10.9 19.9 5.2 1.7-1.9 3.8-4.9 4.6-6.5l1.6-3h13.2l13.2.1 2 3.2c3.9 6.1 10.7 6 14.3-.3l1.7-3 354.5.1h354.5l2 3.2c3.9 6.1 10.7 6 14.3-.3l1.7-3h26.4l1.6 3c3 5.8 7.5 10 10.7 10 2.8 0 9.1-4.2 17.5-11.8 1.8-1.6 4.8-4 6.7-5.3 2-1.3 3.6-2.7 3.6-3.1 0-.3-1.5-1.6-3.2-2.7-1.8-1.1-4.4-3.1-5.8-4.3-1.4-1.3-5.4-4.7-9-7.6-8.3-6.7-11.2-6.9-16.4-1.2-2 2.2-3.6 4.4-3.6 4.9s-.7 1.7-1.6 2.5c-1.2 1.3-4 1.6-13.9 1.6h-12.3l-1.8-2.8c-2.5-3.9-4.5-5.1-8-5.2-3.4 0-5.3 1.2-7.7 5.2l-1.7 2.8h-76.2l.7-3.3c.8-3.4 9-27.8 10.5-31.2.5-1.1 1.1-16 1.4-33 .2-17.1.9-45 1.4-62 .6-17.1 1.4-48.4 1.8-69.7l.7-38.7-4.1 1c-2.3.5-5.6 1.6-7.5 2.5l-3.4 1.6-.6 19.6c-.4 10.7-.7 49.1-.7 85.4 0 36.2-.4 65.8-.8 65.8-.5 0-1.2-26-1.5-57.8-.9-70.6-1.8-109.2-2.7-109.2-.3 0-3 2.3-5.8 5.2-2.8 2.8-5.5 4.9-5.8 4.5-.4-.3-.4-2.1 0-4 .9-4.7 7.5-11 16-15.3 11.8-5.8 19.6-4.1 19.6 4.3l.1 3.8 3.3-3.9c6.3-7.3 7.9-16.9 3.3-20.1l-2.1-1.5 2.2-3.8c1.1-2.1 2.4-5.7 2.8-7.9.6-3.7.3-4.5-2-6.6-1.4-1.4-4-2.7-5.6-3.1-2.8-.5-3-.8-3-5.3-.1-9.1 2.1-73.8 2.6-75.9.2-1.4 3-3.7 7.6-6.5 12.2-7.2 11.6-6.2 5.6-10-7.9-5.1-11.6-8.6-12.3-11.9-.7-3.3-1.2-3.3-14.2-.9l-5.3 1v23.3c0 12.8-.3 37.5-.7 54.9l-.6 31.7h-2.7c-1.5 0-2.7-.6-2.7-1.3 0-.6-.4-25.4-.8-54.9l-.8-53.7-5.1-1c-12.9-2.4-12.9-2.4-15.1 2.2-1.5 3.2-3.8 5.4-9.3 9l-7.4 4.9 3.6 2.4c1.9 1.3 3.7 2.4 4 2.4.2 0 2.7 1.4 5.5 3.1 6.1 3.8 5.6 1.1 7.1 40.9.5 16.2 1.3 34.4 1.6 40.5l.6 11-8.1 5.2c-12.5 8.1-17.1 17.2-12 23.7 1.2 1.5 1.9 3 1.5 3.3-.3.3-10.8 5.7-23.3 11.9l-22.7 11.3-2.2 9.3c-2.1 8.6-2.1 9.5-.7 12.3 2.4 4.5 2.7 14.7.9 26.9-1.6 10.9-1.5 13.4.7 10.6.7-.8 5.2-4.9 10.2-9 4.9-4.1 9.9-8.3 11-9.3 1.1-1.1 9.5-8.2 18.8-16 9.2-7.7 16.7-14.2 16.7-14.4 0-.2-1.4-1.6-3.2-3.2l-3.2-2.8 8 .4c4.3.3 8.4.6 9.1.8.9.3 1.2 3.7 1.1 11.7-.1 20.7 2.5 112.3 3.2 113.3.4.5.8 11.6.9 24.6l.1 23.6 6 17.9c3.3 9.8 5.6 18.2 5.2 18.6-.5.5-13 .7-27.8.6l-26.9-.3-.5-4-.5-4-5.5-.2c-3-.1-7.5-.2-9.9-.2-5.9-.1-5-.7 4-2.6 12.3-2.5 11.9-2.3 11.1-4.3-3.6-8.9-12.3-11.8-28.2-9.2-20.2 3.4-22.9 3.5-26.7 1.5-6.4-3.5-7.9-7.3-9.7-24.6-3.3-33.7-3.3-35.7 1-31.4.9.8 2.2 1.5 3.1 1.5 1.6 0 1.5-2.3-.8-17.1-.9-6-.8-7.1 1-10.8 3.2-6.2 6.9-21.2 8.2-33 1.2-10.9.7-28.1-1-33.9-1.9-6.6 1.3-2.7 6.4 7.6 2.8 5.6 5.3 10.2 5.6 10.2.8 0 1.9-10.8 1.9-19.2 0-12.7-5-30.5-12.5-44.7-1.9-3.6-3.3-6.6-3.1-6.8.3-.3 6.5 4.8 10.2 8.4 4.5 4.5 5.6 2.3 5.6-10.6 0-18.1-7.5-29.6-31.4-48.2-12-9.4-16.7-14.4-19.6-21.2-1.6-3.8-1.5-5.1.7-7.8 1.8-2.3 2.6-2.4 18.8-2.9 14-.5 17.3-.9 19.6-2.4 1.5-1 2.7-2.1 2.7-2.5 0-.3-2.8-.6-6.3-.6-4.7 0-7.7-.7-12.4-2.9-3.5-1.6-6.3-3.2-6.3-3.6 0-1.2 15.1-2.2 21.1-1.4 9.3 1.1 14.9 5.5 14.9 11.6 0 1.7.2 1.9 1.6.7.8-.7 2.6-3.4 4-6.1 3.3-6.5 3.3-14.6 0-20.3-3.9-6.6-15.5-15-24.3-17.4-1.7-.5-2.7-1.4-2.4-2.2.2-.8.6-4.3.8-8 .4-5.3.2-7.3-1.5-10.5-4-7.7-12.7-14.2-25.9-19.5-8-3.2-11.1-4.2-24.3-8-4.1-1.1-11.8-3.4-17-5-16-5-24.9-12.8-27.4-24l-1.2-5.2-2.3 5.3c-5.3 12.4-6.1 24.6-2 33.9 1 2.4 1.9 4.7 1.9 5 0 .4-2.6 1.5-5.7 2.5-10.1 3.2-20.6 9.5-29.3 17.5l-4.5 4.2 5.5-.5c3-.2 8.6-.9 12.4-1.5 3.8-.6 7.1-1 7.3-.8.2.2-2.7 2.7-6.5 5.5-11 8.2-22.9 21.9-28.6 33.1-2 3.9-4.6 12.1-3.9 12.1.3 0 2.8-2.3 5.5-5 6.2-6.3 15.3-12.6 22.9-15.6 7.9-3.2 8.9-3 4.8.9-11.5 10.9-19.5 24.6-22.4 38.3-1.6 7.3-2.1 28.4-.7 28.4.5 0 1.8-1.8 3-3.9 4.7-8.2 24.7-32 25.9-30.7.3.2-1.3 4.6-3.5 9.7-15.6 37.2-12.9 59.6 8.9 74.6 4.9 3.4 14.1 8.2 33.4 17.4 33.4 16 50.8 33.6 59.8 60.9 2.9 8.6 6.1 25 5.4 27.7-.5 2.1-.4 2.3-3.7-8.7-3.1-10.2-8.6-21-15.7-30.5-12.2-16.5-25.7-25.8-55.3-38.5-18.3-7.9-22.9-10.2-31.3-15.8-7.9-5.3-17.4-15.2-20.3-21.1-1.7-3.7-3.4-5.3-3.4-3.3 0 .5-1.4 3.1-3.2 5.8-1.7 2.7-4.6 7.2-6.4 10-1.8 2.8-5.3 7.5-7.6 10.5-6.5 8.2-14 18.3-14.5 19.6-.3.7-.9 1.3-1.4 1.3-1.1 0-.5-1.3 5.6-13 12-23.1 17.8-38.7 19.5-52.6 4.2-33.6-16.9-61.4-64.5-85.2-15.5-7.7-29.6-13.5-55-22.4-19.9-6.9-18.4-6.4-48-16.2-27.2-8.9-41.4-13.7-59-20.1-18.9-6.9-19.4-7.1-20.1-7.8-.4-.4-1.3-.7-2-.7-.8 0-3.7-1.1-6.6-2.4-3-1.4-7.6-3.3-10.3-4.4-4.8-1.9-13.9-6.1-27.5-12.4-25.6-12.1-52.2-30.6-67-46.5l-7.2-7.8.7 5.5zm456.8 87c2.6 1.3 4.7 2.8 4.7 3.2 0 .4.5.8 1.1.8 1.6 0 16 8.9 19.2 11.8 1.5 1.4 2.7 3.4 2.7 4.3 0 2.3 3.8 4.9 7.1 4.9 1.5 0 3.7.9 5 1.9l2.4 1.9-2.8 1.1c-4.4 1.7-9.9 1.3-13.7-1-4.1-2.6-5-3.6-9.6-11.6-2.5-4.5-5-7.1-8.8-9.7-5.3-3.5-15-11.3-13.1-10.5.6.3 3.1 1.5 5.8 2.9zm193.4 124.6c2.2 3 1 3.9-5.8 4-6.3.1-20.3 4.1-27.4 7.8-6.4 3.4-2.9-3.3 4-7.7 3.6-2.3 9.2-4.5 15-6.1 4.4-1.1 12.8 0 14.2 2zM898.4 853.2c1.3 4.2 1.9 22.7.9 24-2.4 3.1-2.3 6.5.3 10.4 4 5.9 9.4 12.4 10.4 12.4.5 0 1.4-2.4 2-5.3.6-2.8 1.4-5.8 1.9-6.5 1-1.7 2.1.9 6 14.3 1.6 5.5 4.1 14 5.5 18.9 1.5 4.9 2.9 10.8 3.3 13.2.5 3.9.3 4.3-2.4 5.7-1.6.9-6.4 2.3-10.7 3.2-4.3.8-8.7 2-9.7 2.5-2.6 1.4-5.4 5.8-7.5 11.7l-1.9 5.3H832v-2.8c0-4.9-.7-5.1-15.5-5.6-7.7-.3-14.2-.6-14.5-.6-.6-.2 9.8-2.6 17.8-4 3.4-.7 6.2-1.5 6.2-1.9 0-2.9-11.6-8.5-22.4-10.7-6.2-1.3-12.4-1.5-30.3-1.2-12.4.1-21.3 0-19.7-.4 1.6-.4 8.1-1.9 14.4-3.3 21.4-5 34.2-11.3 43.2-21.4 11.6-12.9 11.3-28.8-.9-40.8-5.4-5.4-12.5-9.2-18.4-10-2.1-.3-3.9-.9-3.9-1.3 0-1.2 10.1-.3 11.3.9.6.6 1.9 1.1 3 1.1 3 0 9.9 3.6 14.5 7.5 5.5 4.8 9.7 11 12.6 18.7 2.3 6.2 2.5 6.3 6.7 7 2.4.4 9.1.7 14.9.6 15.2-.2 24.3-3.2 32.6-11 6.7-6.3 12.3-19.4 12.4-29.1 0-4.1 1.4-5 2.4-1.5zm-242 95.8c2.6 6.3 4.8 11.9 4.9 12.5.1.7-13.4 1.1-38.8 1.2-42.3.2-40.5.5-28.5-4.4 6.8-2.8 17.4-8.5 23.3-12.5 7.2-4.9 22.2-19.6 26.2-25.6l2.8-4.3 2.7 10.8c1.5 6 4.8 16 7.4 22.3zm407.2-447.4c-.3.9-.6 2.9-.6 4.5v2.9h13c14.1 0 13.6.2 12.4-5.9l-.6-3.1H1076c-9.8 0-11.9.3-12.4 1.6z"/><path d="M1061 525.7c-.7 6.5-1.5 14.3-1.9 17.3l-.6 5.5-18.8.3c-18.6.2-18.8.2-21.2-2.2-2.8-2.8-4.9-9.7-3.9-12.9.6-2.1.5-2.1-1.1-.5-1.3 1.2-1.9 3.8-2.3 9l-.4 7.3-5.1 2c-2.8 1.1-5.2 2.5-5.4 3-.3 1.1 7.7 5.5 10 5.5.8 0 1.2 2.2 1.2 7.5s.4 7.9 1.5 8.9c1.3 1.4 1.5 1.1 1.5-2.7.1-4.6 2.1-9.4 4.6-11 1.2-.8 8.9.1 27 3.1 26.6 4.4 31.7 4.8 39.6 3.3 14-2.8 45.3-7.3 46.6-6.8 2.4.9 5 6.7 5.1 11.3.1 3.5.3 3.9 1.6 2.6 1-1 1.4-3.8 1.5-8.8 0-5.2.4-7.4 1.2-7.4 1.8 0 10.3-4.3 10.3-5.1 0-.7-6.4-4-10.2-5.2-1.3-.5-1.6-1.4-1.1-4.1.7-4.4-.3-9.7-2.3-12.2-1.5-1.8-1.5-1.8-1 .7.8 3.6-.9 8.9-3.9 12.1l-2.6 2.8h-18.4c-10.1 0-18.6-.3-18.9-.8-.2-.4-1.2-8.3-2.2-17.5l-1.8-16.7h-27.4l-1.2 11.7zm37.5 32.4c-1.6.4-7.4 1.5-12.7 2.3-9.2 1.5-10.5 1.5-22-.4-6.8-1.2-12.7-2.2-13.3-2.5-.5-.2 10.7-.3 25-.3 16 0 24.9.3 23 .9zM449 556.8c0 4.4 5.5 21.5 9.6 29.8 15.6 31.9 46.7 54.3 100.9 72.9 6.1 2.1 12.4 4.1 14 4.6 1.7.4 7.7 2.1 13.5 3.9 5.8 1.7 14.6 4.2 19.5 5.5 11.1 2.9 45.8 12.1 50.5 13.4 10.5 2.9 43.5 13.8 51.8 17.2 5.4 2.1 13.7 5.9 18.5 8.5 4.9 2.5 9.1 4.3 9.4 4 1.6-1.6-11.5-15.9-22.2-24.4-15.5-12.1-50-29.3-87.2-43.6-15.5-5.9-68.4-27.2-79.3-31.9-36.9-15.8-66-32.7-85.4-49.5-5.4-4.7-10-9.1-10.3-9.8-.8-2.1-3.3-2.5-3.3-.6zm34.6 94.9c1.4 5.9 6.8 17.7 11.3 24.6 13.5 20.6 38.3 36.5 70.6 45.2 22.5 6.1 44.1 9.3 88 13 32.8 2.7 40.9 3.6 54.8 5.6 7.7 1.1 15 2.4 16.4 3 1.3.5 3.3.9 4.4.9 1.7 0 1.8-.3.7-2.1-4.2-6.7-25.4-17.8-48.3-25.2-22.1-7.2-24.1-7.8-69-19.6-14.3-3.8-30.5-8.1-36-9.5-32.6-8.8-71.3-24.1-87.3-34.6l-6.3-4.1.7 2.8zm80.4 90.5c0 2.1 5.2 9.9 9.7 14.5 4.3 4.4 14.5 11.3 16.8 11.3.7 0 1.6.4 1.9.9.3.5 1.6 1.1 2.8 1.4 1.3.3 5 1.3 8.3 2.2 9 2.4 33.7 3 57 1.4 11-.8 29.4-1.4 40.9-1.4h20.8l-4.7-4.2c-5.7-4.9-14.7-9.6-23-11.8-14.8-3.9-22.9-4.6-63-5.6-27.3-.6-42.2-1.3-47-2.3-7.1-1.4-17-4.9-19.2-6.8-1-.8-1.3-.6-1.3.4zm33.5 265.3c-11.8 2.9-20.2 9.3-25.2 19-3.6 7-4.4 20.9-1.7 29.8 3 10 12.9 18.7 25.9 22.8 6.1 2 26.7 1.7 33.6-.4 6.8-2 6.9-2.1 6.9-18.3 0-12.3.6-14.4 4.1-14.4 1 0 2.1-.5 2.4-1 .4-.6-4.3-1-13.5-1s-13.9.4-13.5 1c.3.5 1.7 1 3 1 4.3 0 5.5 3.3 5.5 15.6 0 13.8-.1 13.9-11.4 13.8-6.7 0-9-.5-13.2-2.6-6.5-3.4-11.8-8.9-15.2-15.8-2.5-5-2.7-6.5-2.7-17 0-12.5 1.1-16.4 6.3-21.6 5.5-5.4 9.8-6.9 20.7-6.8 8.9 0 10.6.3 15.2 2.7 5.5 2.8 7.7 5.3 8.8 9.9 1.4 5.8 2.6 2.5 2.3-6.4l-.3-9.3-8.5-1.1c-10.9-1.6-23.1-1.5-29.5.1zm352.4 1.7c-.1 1.8-.4 17.4-.8 34.6-.6 29.5-.7 31.4-2.5 32.8-1.1.8-3.1 1.4-4.5 1.4-1.3 0-2.1.3-1.7.7 1.1 1.1 24.5 1.3 25.1.3.3-.5-1-1.2-3-1.6-2.1-.4-4-1.5-4.7-2.8-1.2-2.1-2.6-46.6-1.5-46.6.3 0 3.8 3.5 7.8 7.7 17.3 18.1 44 44.3 45.2 44.3 1.5 0 2.7-22.9 2.7-51.7 0-14 .2-15.5 2-17.3 1.1-1.1 3-2 4.3-2 1.7-.1 1.8-.3.7-.8-.8-.5-6.7-.6-13-.3-9.2.5-10.7.7-7.4 1.3 2.5.5 4.5 1.5 5 2.5 1.1 2.6 1.8 47.3.7 47.3-.9 0-18.7-17.7-40.8-40.8-6.5-6.7-12.2-12.2-12.6-12.2-.5 0-.9 1.5-1 3.2zm-293.1-1.1c-.9.6-.4.9 1.5.9 1.5 0 3.6.9 4.7 2 1.9 1.9 2 3.3 2 31.4 0 16.9-.4 30.6-1 32.1-.6 1.7-2 2.7-4 3.1-1.6.4-2.7 1-2.5 1.4.6 1 27.1.7 28.1-.3.4-.4-.4-.7-1.8-.7s-3.6-.9-4.9-1.9l-2.4-1.9-.3-26.9c-.1-14.8.1-28.7.6-30.9.7-3.7 1-3.9 5-4.2 10.8-.8 17.8 11.1 14.1 24.1-1.5 5.5-5.1 8.7-9.9 8.7-5.5 0-5.5-.1 3 10 11.8 14.1 18.9 21.6 21.6 23 2.3 1.2 7.7 1.5 26.2 1.5 22.3.1 28.8-.5 20.2-1.9-2.4-.4-4.3-1.4-5-2.5-.6-1.2-1-13.3-1-32 0-28.8.1-30.2 2-32.1 1.1-1.1 3-2 4.2-2 1.2 0 1.9-.3 1.6-.6-.8-.7-26.8-.7-27.6 0-.3.3.4.6 1.6.6 1.2 0 3.1.9 4.2 2 1.9 1.9 2 3.3 2 31.4 0 16.3-.4 30.6-1 32-.6 1.8-1.9 2.7-4.6 3.2-8.1 1.5-14.7-2.9-26.5-17.9-4.1-5-7.6-9.4-7.9-9.7-3-2.9-2.9-3.7 1.1-8.1 8.4-9.2 10.2-19.4 4.9-26.9-4.3-6-9-7.2-29.1-7.5-9.8-.1-18.4.2-19.1.6zm118.9.1c-.7.5 0 .8 1.6.8 1.5 0 3.6.9 4.7 2 1.9 1.9 2 3.3 1.9 31.2-.1 16.1-.4 30.4-.8 31.8-.4 1.7-1.8 2.9-4.1 3.7-4.1 1.4-4.2 1.4 13.2 1.9 7.3.1 13-.1 13.3-.7.4-.5-.7-.9-2.2-.9-1.6 0-3.8-.6-4.9-1.4-1.7-1.3-1.9-3-2.2-17.5l-.3-16.1h4.4c2.4 0 6.6.3 9.2.7 4.2.5 4.9 1 6.3 4.2l1.6 3.6.8-7.4c.8-7.8.5-9.2-1.4-7.3-.8.8-4.8 1.2-11 1.2H796v-25h9.1c10.1 0 12.9 1 12.9 4.5 0 1.3.4 2.6.9 2.9 1 .7 2.1-4.1 2.1-9.3v-3.6h-22.1c-12.1 0-22.6.3-23.2.7zm61.1-.1c-.5.4.6.9 2.6 1.3s4 1.5 4.6 2.6c1.1 2.1 1.2 57.9.1 62-.4 1.7-1.8 2.9-4.1 3.7-4.1 1.4-4.1 1.4 12.7 1.7 7.2.2 13.8-.1 14.5-.5.8-.6.2-.9-1.8-.9-1.8 0-4.2-.9-5.5-1.9-2.3-1.8-2.4-2.6-2.7-16.6-.2-8.8 0-15.1.6-15.7.6-.6 4.1-.7 9.2-.3l8.2.7 1.6 3.7 1.6 3.6.9-7.3c.9-7.5.5-9.4-1.5-7.4-.8.8-4.8 1.2-11 1.2H857v-25h9.1c10.1 0 12.4.8 13.3 4.6 1 4 2.4 1.7 2.8-4.6l.3-5.5h-22.3c-12.3 0-22.8.3-23.4.6zm61.9.1c-.8.5-.4.8.8.8 1.1 0 3.1.7 4.3 1.6 2.2 1.5 2.2 1.6 2.2 32.5 0 29.6-.1 31-2 32.9-1.1 1.1-2.9 2-4.1 2-1.1 0-1.8.4-1.5.8.4.6 27.9.9 29.6.2.3-.1-1.6-.8-4.1-1.6-4-1.2-4.7-1.8-5.3-4.5-1-5.1-.7-57.5.4-60.3.6-1.6 2.1-2.9 4.2-3.5 4-1.1 4.2-1.1-11-1.4-6.8-.1-12.9.1-13.5.5z"/></g><path fill="#D6AC23" fill-opacity=".31" d="M1093.2 778c0 1.4.2 1.9.5 1.2.2-.6.2-1.8 0-2.5-.3-.6-.5-.1-.5 1.3zm-18 32c0 1.4.2 1.9.5 1.2.2-.6.2-1.8 0-2.5-.3-.6-.5-.1-.5 1.3z"/><path fill="#CCB31A" fill-opacity=".04" d="M921 592.4c0 .2.8 1 1.8 1.7 1.5 1.3 1.6 1.2.3-.4s-2.1-2.1-2.1-1.3zm151.2 17.6c0 1.4.2 1.9.5 1.2.2-.6.2-1.8 0-2.5-.3-.6-.5-.1-.5 1.3zm6.9 1.6c0 1.1.3 1.4.6.6.3-.7.2-1.6-.1-1.9-.3-.4-.6.2-.5 1.3zM625.8 750.7c1.2.2 3.2.2 4.5 0 1.2-.2.2-.4-2.3-.4s-3.5.2-2.2.4zm19.5 0c.9.2 2.3.2 3 0 .6-.3-.1-.5-1.8-.5-1.6 0-2.2.2-1.2.5zm429.8 39.9c0 1.1.3 1.4.6.6.3-.7.2-1.6-.1-1.9-.3-.4-.6.2-.5 1.3zm2.2 30.9c0 3.3.2 4.5.4 2.7.2-1.8.2-4.5 0-6s-.4 0-.4 3.3zM406.8 977.7c.6.2 1.8.2 2.5 0 .6-.3.1-.5-1.3-.5-1.4 0-1.9.2-1.2.5zm8 0c.6.2 1.8.2 2.5 0 .6-.3.1-.5-1.3-.5-1.4 0-1.9.2-1.2.5zm9 0c.7.3 1.6.2 1.9-.1.4-.3-.2-.6-1.3-.5-1.1 0-1.4.3-.6.6zm168.5 0c12 .2 31.4.2 43 0 11.7-.1 1.9-.2-21.8-.2-23.6 0-33.2.1-21.2.2zm99.5 0c2.3.2 6.1.2 8.5 0 2.3-.2.4-.4-4.3-.4s-6.6.2-4.2.4zm47.5 0c14.1.2 37.3.2 51.5 0 14.1-.1 2.5-.2-25.8-.2s-39.9.1-25.7.2zm88 0c.9.2 2.5.2 3.5 0 .9-.3.1-.5-1.8-.5-1.9 0-2.7.2-1.7.5zm100.5 0c8.9.2 23.5.2 32.5 0 8.9-.1 1.6-.3-16.3-.3-17.9 0-25.2.2-16.2.3zm96 0c17.7.2 46.7.2 64.5 0 17.7-.1 3.2-.2-32.3-.2s-50 .1-32.2.2zm109 0c1.7.2 4.7.2 6.5 0 1.7-.2.3-.4-3.3-.4-3.6 0-5 .2-3.2.4zm15.5 0c.9.2 2.3.2 3 0 .6-.3-.1-.5-1.8-.5-1.6 0-2.2.2-1.2.5zm37 0c.9.2 2.5.2 3.5 0 .9-.3.1-.5-1.8-.5-1.9 0-2.7.2-1.7.5zm-384 36c.9.2 2.5.2 3.5 0 .9-.3.1-.5-1.8-.5-1.9 0-2.7.2-1.7.5zm7.5 0c.7.3 1.6.2 1.9-.1.4-.3-.2-.6-1.3-.5-1.1 0-1.4.3-.6.6zm56 0c.6.2 1.8.2 2.5 0 .6-.3.1-.5-1.3-.5-1.4 0-1.9.2-1.2.5zm-126.7 9.9c0 1.1.3 1.4.6.6.3-.7.2-1.6-.1-1.9-.3-.4-.6.2-.5 1.3zm106.1 12.4c0 1.4.2 1.9.5 1.2.2-.6.2-1.8 0-2.5-.3-.6-.5-.1-.5 1.3zm0 8c0 1.4.2 1.9.5 1.2.2-.6.2-1.8 0-2.5-.3-.6-.5-.1-.5 1.3zm-159.4.7c.7.3 1.6.2 1.9-.1.4-.3-.2-.6-1.3-.5-1.1 0-1.4.3-.6.6zm159.4 8.3c0 1.9.2 2.7.5 1.7.2-.9.2-2.5 0-3.5-.3-.9-.5-.1-.5 1.8zm103.9 1.6c0 1.1.3 1.4.6.6.3-.7.2-1.6-.1-1.9-.3-.4-.6.2-.5 1.3zm-334.3 21.1c.7.3 1.6.2 1.9-.1.4-.3-.2-.6-1.3-.5-1.1 0-1.4.3-.6.6z"/><path fill="#D5AB21" fill-opacity=".33" d="M1075.2 814c0 1.4.2 1.9.5 1.2.2-.6.2-1.8 0-2.5-.3-.6-.5-.1-.5 1.3zm1.9 35.6c0 1.1.3 1.4.6.6.3-.7.2-1.6-.1-1.9-.3-.4-.6.2-.5 1.3zM453.8 962.7c3.4.2 9 .2 12.5 0 3.4-.2.6-.3-6.3-.3-6.9 0-9.7.1-6.2.3zm668 0c5.6.2 14.8.2 20.5 0 5.6-.1 1-.3-10.3-.3s-15.9.2-10.2.3zm-264.7 106.9c0 1.1.3 1.4.6.6.3-.7.2-1.6-.1-1.9-.3-.4-.6.2-.5 1.3zm91 1c0 1.1.3 1.4.6.6.3-.7.2-1.6-.1-1.9-.3-.4-.6.2-.5 1.3z"/><path fill="#D6AD22" fill-opacity=".29" d="M1082.8 495.7c.6.2 1.8.2 2.5 0 .6-.3.1-.5-1.3-.5-1.4 0-1.9.2-1.2.5zm-53.5 53c3.1.2 8.3.2 11.5 0 3.1-.2.5-.3-5.8-.3s-8.9.1-5.7.3zm82.5 0c2.3.2 5.9.2 8 0 2-.2.1-.4-4.3-.4-4.4 0-6.1.2-3.7.4zm13 0c.6.2 1.8.2 2.5 0 .6-.3.1-.5-1.3-.5-1.4 0-1.9.2-1.2.5zm-27.7 88.9c0 1.1.3 1.4.6.6.3-.7.2-1.6-.1-1.9-.3-.4-.6.2-.5 1.3zm-23.9 36.4c0 1.4.2 1.9.5 1.2.2-.6.2-1.8 0-2.5-.3-.6-.5-.1-.5 1.3zm20 108c0 1.4.2 1.9.5 1.2.2-.6.2-1.8 0-2.5-.3-.6-.5-.1-.5 1.3zm-33 30c0 1.4.2 1.9.5 1.2.2-.6.2-1.8 0-2.5-.3-.6-.5-.1-.5 1.3zm-435.9 248c0 2.5.2 3.5.4 2.2.2-1.2.2-3.2 0-4.5-.2-1.2-.4-.2-.4 2.3zm386.8 11.6c0 1.1.3 1.4.6.6.3-.7.2-1.6-.1-1.9-.3-.4-.6.2-.5 1.3z"/><path fill="#D6AD1F" fill-opacity=".1" d="M617.8 750.7c1.2.2 3.2.2 4.5 0 1.2-.2.2-.4-2.3-.4s-3.5.2-2.2.4zm459.3 83.9c0 1.1.3 1.4.6.6.3-.7.2-1.6-.1-1.9-.3-.4-.6.2-.5 1.3zM751.4 1044c0 11.3.2 15.9.3 10.2.2-5.6.2-14.8 0-20.5-.1-5.6-.3-1-.3 10.3zm166.9-16c0 2.5.2 3.5.4 2.2.2-1.2.2-3.2 0-4.5-.2-1.2-.4-.2-.4 2.3zm0 20c0 4.7.2 6.6.4 4.2.2-2.3.2-6.1 0-8.5-.2-2.3-.4-.4-.4 4.3z"/><path fill="#D7AC22" fill-opacity=".47" d="M861.8 1043.7c.7.3 1.6.2 1.9-.1.4-.3-.2-.6-1.3-.5-1.1 0-1.4.3-.6.6zm149.3 13.9c0 1.1.3 1.4.6.6.3-.7.2-1.6-.1-1.9-.3-.4-.6.2-.5 1.3z"/><path fill="#D6AC22" fill-opacity=".41" d="M1075.3 820.5c0 2.7.2 3.8.4 2.2.2-1.5.2-3.7 0-5-.2-1.2-.4 0-.4 2.8z"/><path fill="#D7AB21" fill-opacity=".27" d="M1075.3 495.7c.9.2 2.3.2 3 0 .6-.3-.1-.5-1.8-.5-1.6 0-2.2.2-1.2.5zm-1.5 14c1.2.2 3.2.2 4.5 0 1.2-.2.2-.4-2.3-.4s-3.5.2-2.2.4zm-25.5 39c1.5.2 3.9.2 5.5 0 1.5-.2.2-.4-2.8-.4s-4.3.2-2.7.4zm51.5 0c1.8.2 4.5.2 6 0s0-.4-3.3-.4-4.5.2-2.7.4zm-423.7 508.9c0 1.1.3 1.4.6.6.3-.7.2-1.6-.1-1.9-.3-.4-.6.2-.5 1.3zm-51.8 10.4c0 2.5.2 3.5.4 2.2.2-1.2.2-3.2 0-4.5-.2-1.2-.4-.2-.4 2.3z"/><path fill="#D3AF24" fill-opacity=".14" d="M656.8 735.7c.7.3 1.6.2 1.9-.1.4-.3-.2-.6-1.3-.5-1.1 0-1.4.3-.6.6zm420.3 102.9c0 1.1.3 1.4.6.6.3-.7.2-1.6-.1-1.9-.3-.4-.6.2-.5 1.3zm-285.3 169.1c2.3.2 6.1.2 8.5 0 2.3-.2.4-.4-4.3-.4s-6.6.2-4.2.4zm62 0c1.2.2 3.2.2 4.5 0 1.2-.2.2-.4-2.3-.4s-3.5.2-2.2.4zm64.3 13.9c0 1.1.3 1.4.6.6.3-.7.2-1.6-.1-1.9-.3-.4-.6.2-.5 1.3zm-61 10c0 1.1.3 1.4.6.6.3-.7.2-1.6-.1-1.9-.3-.4-.6.2-.5 1.3z"/><path fill="#D7AD21" fill-opacity=".45" d="M1078.1 740.6c0 1.1.3 1.4.6.6.3-.7.2-1.6-.1-1.9-.3-.4-.6.2-.5 1.3zm-18 66c0 1.1.3 1.4.6.6.3-.7.2-1.6-.1-1.9-.3-.4-.6.2-.5 1.3zm30 96c0 1.1.3 1.4.6.6.3-.7.2-1.6-.1-1.9-.3-.4-.6.2-.5 1.3zm-290.8 141.1c.9.2 2.3.2 3 0 .6-.3-.1-.5-1.8-.5-1.6 0-2.2.2-1.2.5z"/><path fill="#D6AB21" fill-opacity=".39" d="M952.8 655.7c.7.3 1.6.2 1.9-.1.4-.3-.2-.6-1.3-.5-1.1 0-1.4.3-.6.6zm125.5 92.8c0 2.2.2 3 .4 1.7.2-1.2.2-3 0-4-.3-.9-.5.1-.4 2.3zm-12.5 214.2c1.2.2 3.2.2 4.5 0 1.2-.2.2-.4-2.3-.4s-3.5.2-2.2.4zm-54.6 100.8c0 1.6.2 2.2.5 1.2.2-.9.2-2.3 0-3-.3-.6-.5.1-.5 1.8zm-341.4 16.2c.7.3 1.6.2 1.9-.1.4-.3-.2-.6-1.3-.5-1.1 0-1.4.3-.6.6zm240.5 0c.9.2 2.3.2 3 0 .6-.3-.1-.5-1.8-.5-1.6 0-2.2.2-1.2.5z"/><path fill="#D5AC23" fill-opacity=".43" d="M1078.1 737.6c0 1.1.3 1.4.6.6.3-.7.2-1.6-.1-1.9-.3-.4-.6.2-.5 1.3zm-3 89c0 1.1.3 1.4.6.6.3-.7.2-1.6-.1-1.9-.3-.4-.6.2-.5 1.3zm16.1 34.4c0 1.9.2 2.7.5 1.7.2-.9.2-2.5 0-3.5-.3-.9-.5-.1-.5 1.8zm-287.4 182.7c.7.3 1.6.2 1.9-.1.4-.3-.2-.6-1.3-.5-1.1 0-1.4.3-.6.6z"/><path fill="#D5AA20" fill-opacity=".09" d="M1091.1 873.6c0 1.1.3 1.4.6.6.3-.7.2-1.6-.1-1.9-.3-.4-.6.2-.5 1.3z"/><path fill="#BFBF40" fill-opacity=".02" d="M920.8 562.7c.7.3 1.6.2 1.9-.1.4-.3-.2-.6-1.3-.5-1.1 0-1.4.3-.6.6zm3.7.2c-.3.5 0 1.3.6 1.7.7.4.9.3.5-.4-.3-.5 0-1.3.6-1.5.9-.4 1-.6.1-.6-.6-.1-1.4.3-1.8.8zm4.3.8c.7.3 1.6.2 1.9-.1.4-.3-.2-.6-1.3-.5-1.1 0-1.4.3-.6.6zm8.2 2.7c0 .2.8 1 1.8 1.7 1.5 1.3 1.6 1.2.3-.4s-2.1-2.1-2.1-1.3zm10 5c0 .2.8 1 1.8 1.7 1.5 1.3 1.6 1.2.3-.4s-2.1-2.1-2.1-1.3zm-5 33c0 .2.7.7 1.6 1 .8.3 1.2.2.9-.4-.6-1-2.5-1.4-2.5-.6zm-349 4c0 .2.8 1 1.8 1.7 1.5 1.3 1.6 1.2.3-.4s-2.1-2.1-2.1-1.3zm-15 18c0 .2.7.7 1.6 1 .8.3 1.2.2.9-.4-.6-1-2.5-1.4-2.5-.6zm169.1 119.2c0 1.1.3 1.4.6.6.3-.7.2-1.6-.1-1.9-.3-.4-.6.2-.5 1.3zm52.3 10.6-1.9 2.3 2.3-1.9c1.2-1.1 2.2-2.1 2.2-2.3 0-.8-.8-.2-2.6 1.9zM535.8 943.7c.7.3 1.6.2 1.9-.1.4-.3-.2-.6-1.3-.5-1.1 0-1.4.3-.6.6z"/><path fill="#FF8000" fill-opacity=".01" d="M923.5 562c-.3.5-.2 1 .4 1 .5 0 1.7.7 2.5 1.6.9.8 1.6 1 1.6.4s-.7-1.3-1.5-1.6c-.8-.4-1.2-1-.9-1.5.3-.5.1-.9-.5-.9-.5 0-1.3.4-1.6 1zm-7.7.7c.7.3 1.6.2 1.9-.1.4-.3-.2-.6-1.3-.5-1.1 0-1.4.3-.6.6zm23.2 4.8c.7.9 1.5 1.3 1.7 1.1.7-.7-.7-2.6-1.9-2.6-.6 0-.6.6.2 1.5zm3.8 2.2c.7.3 1.6.2 1.9-.1.4-.3-.2-.6-1.3-.5-1.1 0-1.4.3-.6.6zm15.3 12.3c1.4 3.1 1.9 3.6 1.9 2.4 0-.6-.7-1.9-1.6-3-1.4-1.8-1.4-1.8-.3.6zM926 597c0 .4.8 1.4 1.7 2.1 1.4 1.2 1.6 1.2.8 0-.6-1.1-.4-1.3.9-.8.9.4 1.5.3 1.2-.2-.8-1.2-4.6-2.1-4.6-1.1zm-331 14.4c0 .3.9 1 2 1.6 1.1.6 2 .8 2 .6 0-.3-.9-1-2-1.6-1.1-.6-2-.8-2-.6zm-51.2 2.3c.7.3 1.6.2 1.9-.1.4-.3-.2-.6-1.3-.5-1.1 0-1.4.3-.6.6zm4.9 1.4c.7.7 1.5 1 1.8.7.3-.3-.2-.9-1.2-1.2-1.4-.6-1.5-.5-.6.5zm73.1 8.6c.6.2 1.8.2 2.5 0 .6-.3.1-.5-1.3-.5-1.4 0-1.9.2-1.2.5zm-46.3 1.3c2.7 1.2 4.3 1.2 2.5 0-.8-.5-2.2-.9-3-.9-1 0-.8.3.5.9zm50.6-.6c.2.2 1.8.6 3.4 1 2.2.5 2.6.4 1.5-.4-1.4-.9-5.9-1.5-4.9-.6zm9.7 2.3c.6.2 1.8.2 2.5 0 .6-.3.1-.5-1.3-.5-1.4 0-1.9.2-1.2.5zm-48.8 4.2c0 .6.4 1.3 1 1.6.6.3.7-.1.4-.9-.7-1.8-1.4-2.1-1.4-.7zM536.5 653c.3.5 1.1 1 1.6 1 .6 0 .7-.5.4-1-.3-.6-1.1-1-1.6-1-.6 0-.7.4-.4 1zm19.5 8.4c0 .9 5 1.2 6.2.5.8-.6-.1-.9-2.4-.9-2.1 0-3.8.2-3.8.4zm194.5 73.7c-.4.6-.5 1.2-.2 1.5.2.3.7-.2 1-1.1.7-1.7.1-2-.8-.4zm52.4 17.6c-1.2 1.6-1.2 1.7.1.7.8-.6 2.2-1.4 3-1.7 1.3-.5 1.2-.6-.1-.6-.9-.1-2.3.7-3 1.6zm-4 3c-1.3 1.6-1.2 1.7.4.4.9-.7 1.7-1.5 1.7-1.7 0-.8-.8-.3-2.1 1.3zm-54.8 3.9c0 1.1.3 1.4.6.6.3-.7.2-1.6-.1-1.9-.3-.4-.6.2-.5 1.3zm-.9 7.4c0 1.4.2 1.9.5 1.2.2-.6.2-1.8 0-2.5-.3-.6-.5-.1-.5 1.3zm-.1 10c0 .8.4 2.2.9 3 1.2 1.8 1.2.2 0-2.5-.6-1.3-.9-1.5-.9-.5zm99.7 118.7c.7.3 1.6.2 1.9-.1.4-.3-.2-.6-1.3-.5-1.1 0-1.4.3-.6.6zm-305 47c.6.2 1.8.2 2.5 0 .6-.3.1-.5-1.3-.5-1.4 0-1.9.2-1.2.5zm13.7.3c-.3.5-.2 1 .4 1 .5 0 1.3-.5 1.6-1 .3-.6.2-1-.4-1-.5 0-1.3.4-1.6 1zm9.5 2c.8.5 2 1 2.5 1 .6 0 .3-.5-.5-1s-1.9-1-2.5-1c-.5 0-.3.5.5 1z"/><path fill="#FA0" fill-opacity=".01" d="M955.6 579.3c.3 1 .9 1.5 1.2 1.2.3-.3 0-1.1-.7-1.8-1-.9-1.1-.8-.5.6zm-17.9 23.8c.7.7 1.5 1 1.8.7.3-.3-.2-.9-1.2-1.2-1.4-.6-1.5-.5-.6.5zM546 614.4c0 .2.7.7 1.6 1 .8.3 1.2.2.9-.4-.6-1-2.5-1.4-2.5-.6zm65.7 4.7c.7.7 1.5 1 1.8.7.3-.3-.2-.9-1.2-1.2-1.4-.6-1.5-.5-.6.5zm21.1 6.6c.7.3 1.6.2 1.9-.1.4-.3-.2-.6-1.3-.5-1.1 0-1.4.3-.6.6zm-49.8 2.7c0 .3.9 1 2 1.6 1.1.6 2 .8 2 .6 0-.3-.9-1-2-1.6-1.1-.6-2-.8-2-.6zm163.1 121.2c0 1.1.3 1.4.6.6.3-.7.2-1.6-.1-1.9-.3-.4-.6.2-.5 1.3zm-2.9 23.9c0 1.6.2 2.2.5 1.2.2-.9.2-2.3 0-3-.3-.6-.5.1-.5 1.8zm102.6 122.2c.7.3 1.6.2 1.9-.1.4-.3-.2-.6-1.3-.5-1.1 0-1.4.3-.6.6zm-292 48c.7.3 1.6.2 1.9-.1.4-.3-.2-.6-1.3-.5-1.1 0-1.4.3-.6.6zm4 37c.7.3 1.6.2 1.9-.1.4-.3-.2-.6-1.3-.5-1.1 0-1.4.3-.6.6z"/><path fill="#DBB624" fill-opacity=".03" d="M553.8 944.7c.7.3 1.6.2 1.9-.1.4-.3-.2-.6-1.3-.5-1.1 0-1.4.3-.6.6z"/><path fill="#D7AA22" fill-opacity=".18" d="M1074.2 746c0 1.4.2 1.9.5 1.2.2-.6.2-1.8 0-2.5-.3-.6-.5-.1-.5 1.3zm-217 315.5c0 1.6.2 2.2.5 1.2.2-.9.2-2.3 0-3-.3-.6-.5.1-.5 1.8zm-106 8.5c0 1.4.2 1.9.5 1.2.2-.6.2-1.8 0-2.5-.3-.6-.5-.1-.5 1.3z"/><path fill="#D6AB23" fill-opacity=".49" d="M1078.2 754c0 1.4.2 1.9.5 1.2.2-.6.2-1.8 0-2.5-.3-.6-.5-.1-.5 1.3zm-81.4 253.7c.7.3 1.6.2 1.9-.1.4-.3-.2-.6-1.3-.5-1.1 0-1.4.3-.6.6zm-47.7 11.9c0 1.1.3 1.4.6.6.3-.7.2-1.6-.1-1.9-.3-.4-.6.2-.5 1.3zm-84.3 24.1c.7.3 1.6.2 1.9-.1.4-.3-.2-.6-1.3-.5-1.1 0-1.4.3-.6.6z"/><path fill="#D7AD22" fill-opacity=".35" d="M473.8 962.7c1.2.2 3.2.2 4.5 0 1.2-.2.2-.4-2.3-.4s-3.5.2-2.2.4zm16 0c1.2.2 3.2.2 4.5 0 1.2-.2.2-.4-2.3-.4s-3.5.2-2.2.4zm16 0c1.2.2 3.2.2 4.5 0 1.2-.2.2-.4-2.3-.4s-3.5.2-2.2.4zm528 0c5.6.2 14.8.2 20.5 0 5.6-.1 1-.3-10.3-.3s-15.9.2-10.2.3zm55.5 0c4.2.2 11.2.2 15.5 0 4.2-.1.7-.3-7.8-.3s-12 .2-7.7.3z"/><path fill="#E3AA1C" fill-opacity=".04" d="M931 566c0 .5.5 1 1.1 1 .5 0 .7-.5.4-1-.3-.6-.8-1-1.1-1-.2 0-.4.4-.4 1z"/><path fill="#D2A51E" fill-opacity=".07" d="M1091.1 877.6c0 1.1.3 1.4.6.6.3-.7.2-1.6-.1-1.9-.3-.4-.6.2-.5 1.3z"/><path fill="#CFAF20" fill-opacity=".06" d="M745.1 771.6c0 1.1.3 1.4.6.6.3-.7.2-1.6-.1-1.9-.3-.4-.6.2-.5 1.3z"/><path fill="#D8AD23" fill-opacity=".23" d="M543.8 978.7c.7.3 1.6.2 1.9-.1.4-.3-.2-.6-1.3-.5-1.1 0-1.4.3-.6.6z"/><path fill="#D8AC21" fill-opacity=".18" d="M1071.8 557.7c.7.3 1.6.2 1.9-.1.4-.3-.2-.6-1.3-.5-1.1 0-1.4.3-.6.6zm12 0c.7.3 1.6.2 1.9-.1.4-.3-.2-.6-1.3-.5-1.1 0-1.4.3-.6.6z"/><path fill="#D5AA20" fill-opacity=".19" d="M1074.8 557.7c.6.2 1.8.2 2.5 0 .6-.3.1-.5-1.3-.5-1.4 0-1.9.2-1.2.5zm-206.5 405c.9.2 2.5.2 3.5 0 .9-.3.1-.5-1.8-.5-1.9 0-2.7.2-1.7.5z"/><path fill="#D5AA1C" fill-opacity=".07" d="M899.2 866c0 1.4.2 1.9.5 1.2.2-.6.2-1.8 0-2.5-.3-.6-.5-.1-.5 1.3z"/><path fill="none" d="M921.7 560.3c-.3.9.5 1.3 2.4 1.2 2.6 0 2.7-.1 1.2-1.2-2.1-1.6-3-1.6-3.6 0zm-5.2.7c-1.9.8-1.9.9.2.9 1.2.1 2.5-.4 2.8-.9.7-1.2-.2-1.2-3 0zm13.1 5.3c.3 1 .9 1.5 1.2 1.2.3-.3 0-1.1-.7-1.8-1-.9-1.1-.8-.5.6zm11.4 1.6c0 .5 1.2 1.1 2.7 1.4 2.6.5 2.6.4.8-.9-2.2-1.6-3.5-1.8-3.5-.5zM609 573c-1.2.8-.9 1 1.2 1 1.4 0 3.5.3 4.5.6s.7-.2-.7-1c-3-1.8-3.1-1.8-5-.6zm343.4 1.4c1.6 1.4 3.1 2.6 3.4 2.6 1 0-2.2-3.2-4.2-4.2-1.4-.6-1.1-.1.8 1.6zm-331.7 2.7c.7.7 1.5 1 1.8.7.3-.3-.2-.9-1.2-1.2-1.4-.6-1.5-.5-.6.5zm335.3 1.3c0 .2.7.9 1.5 1.6.9.7 1.5.8 1.5.2 0-.5-.7-1.2-1.5-1.6-.8-.3-1.5-.4-1.5-.2zm4 6.7c.5 1.9 1.1 4.3 1.4 5.4.3 1.1.4 0 .1-2.4-.2-2.4-.8-4.8-1.4-5.4-.7-.7-.8 0-.1 2.4zm-31 16.3c0 .2.8 1 1.8 1.7 1.5 1.3 1.6 1.2.3-.4s-2.1-2.1-2.1-1.3zm7 2.3c2.6 2.1 7 3.9 7 2.9 0-.5-2.8-1.9-8.5-4.4-.5-.3.1.4 1.5 1.5zm-350.2 1.5c1.1 1.4 5.2 3.1 5.2 2.2 0-.2-1.5-1.1-3.2-2-2.8-1.4-3.1-1.5-2-.2zm6.9 4.9c.7.7 1.5 1 1.8.7.3-.3-.2-.9-1.2-1.2-1.4-.6-1.5-.5-.6.5zm-51.9 2.6c.6.2 1.8.2 2.5 0 .6-.3.1-.5-1.3-.5-1.4 0-1.9.2-1.2.5zm10.6 3.2c.4.6 1.6 1.6 2.8 2.2 1.5.8 1.8.8 1.4 0-.4-.6-1.6-1.6-2.8-2.2-1.5-.8-1.8-.8-1.4 0zm50 0c.3.5 1.6 1.1 2.8 1.4 2.2.6 2.2.5.4-.8-2.2-1.7-4-2-3.2-.6zm8.6 3.1c0 .5.5 1 1.1 1 .5 0 .7-.5.4-1-.3-.6-.8-1-1.1-1-.2 0-.4.4-.4 1zm-49.5 2c.3.5 1.4 1 2.3 1 1.5 0 1.5-.2.2-1-2-1.3-3.3-1.3-2.5 0zm54.5.3c.8.8 2.6 1.8 4 2.2 3.2.9 1.5-.7-2.5-2.4-2.6-1.1-2.8-1.1-1.5.2zm-49.5.7c.3.5 1.4 1 2.3 1 1.5 0 1.5-.2.2-1-2-1.3-3.3-1.3-2.5 0zm5.5 1c.8.5 2 1 2.5 1 .6 0 .3-.5-.5-1s-1.9-1-2.5-1c-.5 0-.3.5.5 1zm52.8 1.7c.7.3 1.6.2 1.9-.1.4-.3-.2-.6-1.3-.5-1.1 0-1.4.3-.6.6zm10.2 2.4c0 1 4.7 1.7 6 .9.7-.4-.3-.9-2.4-1.2-2-.2-3.6-.1-3.6.3zm-46.3 3.9c1 1.1 2.2 2 2.7 2s.1-.9-.9-2-2.2-2-2.6-2c-.5 0-.1.9.8 2zM534 652c0 .5.5 1 1.1 1 .5 0 .7-.5.4-1-.3-.6-.8-1-1.1-1-.2 0-.4.4-.4 1zm3.5 3c.3.4 1.4 1 2.5 1.3 1.1.3 1.8.2 1.5-.3-.3-.4-1.4-1-2.5-1.3-1.1-.3-1.8-.2-1.5.3zm557.6 74.6c0 1.1.3 1.4.6.6.3-.7.2-1.6-.1-1.9-.3-.4-.6.2-.5 1.3zm-346.5 8.9c-.9 2.6-.7 3.2.5 1.2.6-1 .9-2.1.6-2.3-.2-.3-.7.2-1.1 1.1zm-2.4 7.5c0 1.4.2 1.9.5 1.2.2-.6.2-1.8 0-2.5-.3-.6-.5-.1-.5 1.3zm-1.1 5.6c0 1.1.3 1.4.6.6.3-.7.2-1.6-.1-1.9-.3-.4-.6.2-.5 1.3zm-1 5c0 1.1.3 1.4.6.6.3-.7.2-1.6-.1-1.9-.3-.4-.6.2-.5 1.3zm-.9 5.9c0 1.6.2 2.2.5 1.2.2-.9.2-2.3 0-3-.3-.6-.5.1-.5 1.8zm113.6 133.2c.6.2 1.8.2 2.5 0 .6-.3.1-.5-1.3-.5-1.4 0-1.9.2-1.2.5zM534 942.2c-1.9.5-3.9 1.3-4.4 1.8-.5.5 1.3.2 3.9-.6 2.7-.8 5.1-1.6 5.3-1.9.7-.7-.7-.5-4.8.7zm7-.1c0 .5.5.7 1 .4.6-.3 1-.8 1-1.1 0-.2-.4-.4-1-.4-.5 0-1 .5-1 1.1zm15.5.9c-.4.6.6 1 2.2 1 2.2 0 2.5-.2 1.3-1-1.9-1.2-2.7-1.2-3.5 0zm6.5 2c.8.5 2 1 2.5 1 .6 0 .3-.5-.5-1s-1.9-1-2.5-1c-.5 0-.3.5.5 1zm-32.8 34.6c1 1 2 1.5 2.4 1.2.3-.4-.5-1.2-1.8-1.8-2.2-1.2-2.2-1.2-.6.6zm37.3-.6c-.3.5-.2 1 .4 1 .5 0 1.3-.5 1.6-1 .3-.6.2-1-.4-1-.5 0-1.3.4-1.6 1zm-4.7 1.7c.6.2 1.8.2 2.5 0 .6-.3.1-.5-1.3-.5-1.4 0-1.9.2-1.2.5zm-23.5 1c.9.2 2.3.2 3 0 .6-.3-.1-.5-1.8-.5-1.6 0-2.2.2-1.2.5zm7 0c1.5.2 3.7.2 5 0 1.2-.2 0-.4-2.8-.4-2.7 0-3.8.2-2.2.4z"/><path fill="#D7AC22" fill-opacity=".33" d="M1063.2 883.5c0 1.6.2 2.2.5 1.2.2-.9.2-2.3 0-3-.3-.6-.5.1-.5 1.8z"/><path fill="#D5AB21" fill-opacity=".45" d="M1090.3 877c0 2.5.2 3.5.4 2.2.2-1.2.2-3.2 0-4.5-.2-1.2-.4-.2-.4 2.3z"/><path fill="#D8B11D" fill-opacity=".1" d="M889.8 962.7c1.2.2 3.2.2 4.5 0 1.2-.2.2-.4-2.3-.4s-3.5.2-2.2.4z"/><path fill="#D5AA2B" fill-opacity=".02" d="M922 592.4c0 .2.7.7 1.6 1 .8.3 1.2.2.9-.4-.6-1-2.5-1.4-2.5-.6zm-327 17c0 .2.8 1 1.8 1.7 1.5 1.3 1.6 1.2.3-.4s-2.1-2.1-2.1-1.3zm-51.3 46.7c.7.7 1.5 1 1.8.7.3-.3-.2-.9-1.2-1.2-1.4-.6-1.5-.5-.6.5zm8.1 324.6c.7.3 1.6.2 1.9-.1.4-.3-.2-.6-1.3-.5-1.1 0-1.4.3-.6.6z"/><path fill="#D5AA2B" fill-opacity=".05" d="M936.7 569.1c.7.7 1.5 1 1.8.7.3-.3-.2-.9-1.2-1.2-1.4-.6-1.5-.5-.6.5zM541.8 944.7c.7.3 1.6.2 1.9-.1.4-.3-.2-.6-1.3-.5-1.1 0-1.4.3-.6.6z"/><path fill="#D7AF20" fill-opacity=".13" d="M857.8 962.7c1.2.2 3.2.2 4.5 0 1.2-.2.2-.4-2.3-.4s-3.5.2-2.2.4z"/><path fill="#D5AA23" fill-opacity=".14" d="M845.3 962.7c.9.2 2.5.2 3.5 0 .9-.3.1-.5-1.8-.5-1.9 0-2.7.2-1.7.5z"/><path fill="#D7AC22" fill-opacity=".45" d="M601.8 962.7c1.2.2 3.2.2 4.5 0 1.2-.2.2-.4-2.3-.4s-3.5.2-2.2.4z"/><path fill="#D5AD23" fill-opacity=".43" d="M593.8 962.7c1.2.2 3.2.2 4.5 0 1.2-.2.2-.4-2.3-.4s-3.5.2-2.2.4zm16 0c1.2.2 3.2.2 4.5 0 1.2-.2.2-.4-2.3-.4s-3.5.2-2.2.4zm16 0c1.2.2 3.2.2 4.5 0 1.2-.2.2-.4-2.3-.4s-3.5.2-2.2.4zm23.5 0c.9.2 2.5.2 3.5 0 .9-.3.1-.5-1.8-.5-1.9 0-2.7.2-1.7.5z"/><path fill="#D7AC21" fill-opacity=".3" d="M816.8 954.7c.6.2 1.8.2 2.5 0 .6-.3.1-.5-1.3-.5-1.4 0-1.9.2-1.2.5z"/><path fill="#D6AD21" fill-opacity=".39" d="M617.8 962.7c1.2.2 3.2.2 4.5 0 1.2-.2.2-.4-2.3-.4s-3.5.2-2.2.4zm18 0c2.3.2 6.1.2 8.5 0 2.3-.2.4-.4-4.3-.4s-6.6.2-4.2.4z"/></svg>